<svg width="130" height="53" viewBox="0 0 130 53" fill="none" xmlns="http://www.w3.org/2000/svg">
<g clip-path="url(#clip0_741_1182)">
<mask id="mask0_741_1182" style="mask-type:luminance" maskUnits="userSpaceOnUse" x="1" y="19" width="127" height="25">
<path d="M127.12 19.5317H1.62158V43.9459H127.12V19.5317Z" fill="white"/>
</mask>
<g mask="url(#mask0_741_1182)">
<path fill-rule="evenodd" clip-rule="evenodd" d="M51.142 38.628C46.5046 42.0981 39.7802 43.9441 33.9898 43.9441C25.8759 43.9441 18.5683 40.9028 13.0376 35.8391C12.6039 35.4406 12.99 34.8988 13.512 35.2063C19.4778 38.7273 26.8562 40.8476 34.4765 40.8476C39.617 40.8476 45.2674 39.7654 50.4677 37.5293C51.2522 37.1929 51.9102 38.0532 51.142 38.628Z" fill="#909094"/>
<path fill-rule="evenodd" clip-rule="evenodd" d="M53.0732 36.3937C52.4791 35.623 49.1523 36.0283 47.6567 36.2103C47.204 36.2654 47.1333 35.8643 47.5412 35.5734C50.1964 33.6819 54.547 34.2278 55.0514 34.862C55.5599 35.5003 54.9168 39.923 52.4302 42.0336C52.0468 42.3576 51.6824 42.1853 51.8523 41.7565C52.4125 40.3379 53.666 37.1643 53.0719 36.3937H53.0732Z" fill="#909094"/>
<path fill-rule="evenodd" clip-rule="evenodd" d="M47.7624 22.2149V20.3785C47.7638 20.0987 47.9718 19.9126 48.222 19.9139H56.3426C56.6023 19.9139 56.8117 20.1042 56.8117 20.3772V21.9529C56.809 22.2176 56.5887 22.5623 56.1999 23.1096L51.9934 29.2004C53.5542 29.1632 55.206 29.4003 56.6254 30.2096C56.9449 30.3915 57.0319 30.6618 57.0564 30.9265V32.8869C57.0564 33.1571 56.7655 33.47 56.4582 33.3074C53.9593 31.9797 50.642 31.835 47.878 33.3239C47.5952 33.4769 47.3002 33.1681 47.3002 32.8979V31.034C47.3002 30.7362 47.3056 30.2261 47.602 29.7712L52.4747 22.6809H48.2315C47.9718 22.6809 47.7638 22.4934 47.7624 22.2176V22.2149ZM18.1403 33.6906H15.6699C15.4347 33.6755 15.2471 33.4962 15.2281 33.2674L15.2308 20.4089C15.2308 20.1524 15.4443 19.947 15.708 19.947H18.0084C18.249 19.9581 18.4421 20.1428 18.4571 20.3785V22.0563H18.5046C19.1042 20.4323 20.234 19.6754 21.7554 19.6754C23.2767 19.6754 24.2692 20.4337 24.9612 22.0563C25.5608 20.4323 26.9217 19.6754 28.3737 19.6754C29.4124 19.6754 30.5409 20.1083 31.2329 21.083C32.0173 22.1652 31.8569 23.7341 31.8569 25.1141L31.8542 33.2288C31.8542 33.4852 31.6421 33.6906 31.3783 33.6906H28.9107C28.6619 33.6741 28.4675 33.4755 28.4675 33.2288V26.4128C28.4675 25.8724 28.5124 24.5199 28.3968 24.0057C28.2133 23.1386 27.6599 22.8959 26.9448 22.8959C26.3452 22.8959 25.7226 23.3012 25.4683 23.9506C25.2141 24.6013 25.2386 25.6821 25.2386 26.4128V33.2288C25.2386 33.4852 25.0251 33.6906 24.7627 33.6906H22.2951C22.0463 33.6741 21.8519 33.4755 21.8519 33.2288L21.8492 26.4128C21.8492 24.979 22.0803 22.8697 20.3278 22.8697C18.5753 22.8697 18.6216 24.9253 18.6216 26.4128V33.2288C18.6202 33.4852 18.4067 33.6906 18.1444 33.6906H18.1403ZM63.823 22.3003C62.0011 22.3003 61.8856 24.8164 61.8856 26.3852C61.8856 27.9541 61.8625 31.3097 63.7998 31.3097C65.7372 31.3097 65.8066 28.6035 65.8066 26.9532C65.8066 25.871 65.759 24.5723 65.4368 23.5439C65.1608 22.6505 64.6061 22.299 63.8216 22.299L63.823 22.3003ZM63.8012 19.6754C67.4679 19.6754 69.4502 22.8697 69.4502 26.927C69.4502 30.9844 67.2599 33.9608 63.8012 33.9608C60.3425 33.9608 58.2433 30.7679 58.2433 26.7906C58.2433 22.8132 60.2256 19.6754 63.8012 19.6754ZM74.2059 33.6906H71.7438C71.4977 33.6741 71.3006 33.4755 71.3006 33.2288L71.2965 20.3661C71.3182 20.1304 71.5222 19.947 71.771 19.947H74.0618C74.278 19.9581 74.4561 20.1069 74.501 20.3055V22.2728H74.5472C75.2392 20.5136 76.2072 19.6754 77.9135 19.6754C79.0202 19.6754 80.1051 20.0808 80.7971 21.1905C81.4429 22.219 81.4429 23.9492 81.4429 25.1941V33.2853C81.4157 33.5128 81.2145 33.6892 80.9698 33.6892H78.494C78.2656 33.6755 78.0807 33.5045 78.0535 33.2853V26.3039C78.0535 24.8963 78.2153 22.8394 76.509 22.8394C75.9095 22.8394 75.3561 23.2447 75.0788 23.8679C74.7321 24.6523 74.6859 25.4367 74.6859 26.3039V33.2274C74.6818 33.4838 74.4683 33.6892 74.2046 33.6892L74.2059 33.6906ZM43.7776 33.6589C43.6144 33.8078 43.3792 33.8175 43.1943 33.7168C42.3745 33.0247 42.2263 32.7063 41.7776 32.0473C40.4222 33.448 39.4609 33.8685 37.7044 33.8685C35.6243 33.8685 34.0064 32.567 34.0064 29.9642C34.0064 27.9307 35.094 26.5479 36.6412 25.8696C37.9817 25.2727 39.8539 25.1651 41.2868 25.0011V24.6757C41.2868 24.0774 41.3331 23.3743 40.9864 22.8587C40.6859 22.3969 40.1081 22.208 39.5996 22.208C38.6574 22.208 37.82 22.6974 37.6133 23.7121C37.5698 23.9382 37.408 24.1615 37.185 24.1739L34.7895 23.9106C34.5869 23.8637 34.3626 23.6997 34.421 23.3867C34.9662 20.4819 37.5249 19.5762 39.8498 19.5527H40.0333C41.2229 19.5679 42.7429 19.8988 43.6688 20.799C44.8706 21.9378 44.7551 23.457 44.7551 25.1114V29.0143C44.7551 30.1889 45.2364 30.7031 45.6877 31.3359C45.8468 31.5648 45.8808 31.835 45.6796 32.0018C45.1752 32.4305 44.2779 33.2205 43.7857 33.6658L43.7789 33.6603L43.7776 33.6589ZM41.2882 27.5516C41.2882 28.5276 41.3113 29.341 40.8259 30.2096C40.433 30.914 39.809 31.3483 39.1156 31.3483C38.168 31.3483 37.6147 30.6163 37.6147 29.5313C37.6147 27.3972 39.5017 27.0098 41.2896 27.0098V27.5529L41.2882 27.5516ZM11.3928 33.6589C11.2296 33.8078 10.9931 33.8175 10.8095 33.7168C9.98833 33.0247 9.8415 32.7063 9.39285 32.0473C8.036 33.448 7.07615 33.8685 5.31959 33.8685C3.23946 33.8685 1.62158 32.567 1.62158 29.9642C1.62158 27.9307 2.70787 26.5479 4.25642 25.8696C5.59694 25.2727 7.46906 25.1651 8.90068 25.0011V24.6757C8.90068 24.0774 8.94827 23.3743 8.60022 22.8587C8.29976 22.3969 7.72194 22.208 7.21347 22.208C6.27129 22.208 5.43244 22.6974 5.22714 23.7121C5.185 23.9382 5.02185 24.1615 4.79752 24.1739L2.40333 23.9106C2.20076 23.8637 1.97643 23.6997 2.03489 23.3867C2.57871 20.4819 5.13741 19.5762 7.46362 19.5527H7.64717C8.83678 19.5679 10.3568 19.8988 11.2826 20.799C12.4845 21.9378 12.3689 23.457 12.3689 25.1114V29.0143C12.3689 30.1889 12.8502 30.7031 13.3016 31.3359C13.4593 31.5648 13.4946 31.835 13.2934 32.0018C12.789 32.4305 11.8917 33.2205 11.3982 33.6658L11.3928 33.6603V33.6589ZM8.90204 27.5516C8.90204 28.5276 8.92516 29.341 8.43979 30.2096C8.04688 30.914 7.42284 31.3483 6.72946 31.3483C5.78185 31.3483 5.2285 30.6163 5.2285 29.5313C5.2285 27.3972 7.11558 27.0098 8.9034 27.0098V27.5529L8.90204 27.5516ZM115.217 38.3035V37.3592C115.217 37.0903 115.348 36.9056 115.624 36.9221C116.14 36.9966 116.87 37.071 117.388 36.9621C118.065 36.8187 118.551 36.3321 118.838 35.6662C119.243 34.7273 119.511 33.9705 119.679 33.4742L114.54 20.5633C114.453 20.3441 114.427 19.9374 114.86 19.9374H116.656C116.998 19.9374 117.138 20.158 117.214 20.3744L120.941 30.8617L124.498 20.3744C124.57 20.1593 124.716 19.9374 125.056 19.9374H126.75C127.179 19.9374 127.155 20.3427 127.07 20.5633L121.971 33.8767C121.312 35.6483 120.432 38.4717 118.453 38.9611C117.46 39.2244 116.208 39.1293 115.473 38.8164C115.288 38.7212 115.216 38.469 115.216 38.3035H115.217ZM112.82 32.9048C112.82 33.1447 112.626 33.3418 112.388 33.3418H111.121C110.848 33.3418 110.66 33.1419 110.626 32.9048L110.498 32.0307C109.916 32.5298 109.201 32.9696 108.426 33.2756C106.936 33.8629 105.218 33.9594 103.761 33.0523C102.709 32.3975 102.149 31.1153 102.149 29.7946C102.149 28.7717 102.46 27.7584 103.148 27.0222C104.067 26.0158 105.4 25.5222 107.009 25.5222C107.982 25.5222 109.372 25.638 110.384 25.973V24.2125C110.384 22.423 109.642 21.6483 107.682 21.6483C106.186 21.6483 105.039 21.8771 103.446 22.3803C103.19 22.3886 103.041 22.1928 103.041 21.9516V20.9479C103.041 20.7066 103.243 20.4737 103.464 20.4034C104.602 19.9001 106.214 19.5872 107.929 19.5293C110.164 19.5293 112.819 20.0408 112.819 23.526V32.9034L112.82 32.9048ZM110.385 30.335V27.6798C109.536 27.444 108.128 27.3461 107.583 27.3461C106.723 27.3461 105.78 27.5529 105.288 28.0892C104.921 28.4835 104.754 29.0488 104.754 29.5947C104.754 30.3006 104.995 31.0106 105.557 31.3607C106.211 31.8115 107.226 31.7564 108.18 31.482C109.096 31.2187 109.957 30.7514 110.384 30.3364L110.385 30.335ZM94.1399 21.6896C96.9514 21.6896 97.7169 23.9313 97.7169 26.4983C97.7332 28.2285 97.4191 29.7712 96.5354 30.6549C95.8747 31.3166 95.1351 31.4958 94.0229 31.4958C93.0332 31.4958 91.7321 30.972 90.7586 30.244V22.9042C91.7715 22.1156 93.0631 21.6896 94.1399 21.6896ZM90.3276 38.764H88.6309C88.393 38.764 88.1999 38.5668 88.1999 38.327V20.3965C88.1999 20.1566 88.3943 19.9594 88.6309 19.9594H89.9293C90.2026 19.9594 90.3888 20.1593 90.4242 20.3965L90.5601 21.3353C91.7769 20.2407 93.3431 19.5376 94.8346 19.5376C99.0139 19.5376 100.388 23.0296 100.388 26.661C100.388 30.546 98.2865 33.6686 94.7299 33.6686C93.233 33.6686 91.8327 33.1088 90.7559 32.1355V38.327C90.7559 38.5668 90.5615 38.764 90.3249 38.764H90.3276Z" fill="#909094"/>
</g>
</g>
<defs>
<clipPath id="clip0_741_1182">
<rect width="125.499" height="24.4142" fill="white" transform="translate(1.62158 19.5317)"/>
</clipPath>
</defs>
</svg>
