<svg width="130" height="53" viewBox="0 0 130 53" fill="none" xmlns="http://www.w3.org/2000/svg">
<path d="M120.223 33.9041H116.693C115.962 33.9041 115.353 33.4185 115.353 32.8116C115.353 32.0833 115.962 31.7191 116.693 31.7191H123.144L124.606 28.4442H116.693C113.407 28.4442 111.579 30.3838 111.579 32.933C111.579 35.4821 113.407 37.179 116.206 37.179H119.736C120.467 37.179 121.076 37.6646 121.076 38.2715C121.076 38.8785 120.589 39.364 119.736 39.364H111.945V42.6389H119.736C123.023 42.6389 124.85 40.6993 124.85 38.0287C124.85 35.3582 123.144 33.9041 120.223 33.9041ZM105.981 33.9041H102.451C101.72 33.9041 101.111 33.4185 101.111 32.8116C101.111 32.0833 101.72 31.7191 102.451 31.7191H108.902L110.364 28.4442H102.451C99.164 28.4442 97.3393 30.3838 97.3393 32.933C97.3393 35.4821 99.164 37.179 101.966 37.179H105.496C106.227 37.179 106.836 37.6646 106.836 38.2715C106.836 38.8785 106.349 39.364 105.496 39.364H97.7047V42.6389H105.496C108.783 42.6389 110.607 40.6993 110.607 38.0287C110.729 35.3607 109.026 33.9041 105.981 33.9041ZM83.4622 42.7578H95.6364V39.4829H87.3578V37.179H95.5146V33.9041H87.3578V31.6002H95.6364V28.3253H83.4622V42.7603V42.7578ZM75.9146 34.511H71.8971V31.6002H75.9146C77.0109 31.6002 77.62 32.3286 77.62 33.0569C77.62 33.9066 77.0109 34.5135 75.9146 34.5135M81.5131 32.9355C81.5131 30.1461 79.564 28.3253 76.3993 28.3253H67.999V42.7603H71.8946V37.7885H73.3564L77.7393 42.7603H82.3659L77.6175 37.5457C80.0513 36.9388 81.5131 35.2419 81.5131 32.9355ZM60.6975 34.7563H56.5583V31.6028H60.6975C61.7939 31.6028 62.403 32.3311 62.403 33.1808C62.403 34.0305 61.9157 34.7589 60.6975 34.7589M61.1848 28.3304H52.7844V42.7654H56.6801V38.0338H61.1848C64.4713 38.0338 66.4204 35.9727 66.4204 33.1808C66.2986 30.27 64.3521 28.3278 61.1848 28.3278M52.0561 28.3278H47.0666L43.4146 32.6953L39.6408 28.3278H34.527L40.9783 35.4847L34.4052 42.7629H39.3946L43.2903 38.1527L47.1859 42.7629H52.2972L45.7241 35.3633L52.0535 28.3278H52.0561ZM21.7463 42.7629H33.9179V39.4879H25.5176V37.1841H33.6743V33.9091H25.5176V31.6053H33.9179V28.3304H21.7463V42.7654V42.7629ZM118.761 18.6193L112.797 9.88701H107.927V24.2007H111.823V15.1016L117.909 24.1981H122.535V9.88701H118.761V18.6219V18.6193ZM96.3622 18.1338L98.4306 13.2808L100.499 18.1338H96.3597H96.3622ZM95.8749 9.88448L89.5455 24.3195H93.8066L95.0247 21.4087H101.72L102.938 24.3195H107.321L100.869 9.88701H95.8775L95.8749 9.88448ZM83.216 17.1627V16.9199C83.216 14.7375 84.4342 13.2808 86.868 13.2808H91.1291V9.76562H86.5026C81.7542 9.76562 79.3204 12.7978 79.3204 16.8011V17.0438C79.3204 21.5326 82.1197 24.0793 86.3808 24.0793H87.7208L89.3018 20.8043H86.9898C84.6778 20.9257 83.216 19.5904 83.216 17.1652M73.4782 24.2007H77.3739V9.88701H73.4782V24.2007ZM65.9306 15.9513H61.9132V13.0406H65.9306C67.027 13.0406 67.6361 13.7689 67.6361 14.4972C67.6361 15.3469 67.027 15.9539 65.9306 15.9539M71.5292 14.4972C71.5292 11.7078 69.5801 9.88701 66.4179 9.88701H58.0175V24.322H61.9132V19.2288H63.375L67.7579 24.2032H72.5062L67.6386 18.9886C70.0724 18.503 71.5342 16.6847 71.5342 14.4997M43.2928 24.2032H55.4644V20.9282H47.1859V18.6244H55.2208V15.3495H47.1859V13.0456H55.4644V9.88701H43.2928V24.2007V24.2032ZM30.9994 18.8646L27.7103 9.88701H21.7463V24.2007H25.5201V13.8903L29.2939 24.2007H32.7023L36.4761 13.8903V24.2007H40.3717V9.88701H34.2859L30.9994 18.8621V18.8646ZM10.0619 18.1363L12.1303 13.2833L14.1987 18.1363H10.0594H10.0619ZM9.57212 9.88701L3.24268 24.2007H7.50376L8.72194 21.2899H15.4168L16.635 24.2007H21.0179L14.5641 9.88701H9.57212Z" fill="#909094"/>
</svg>
