<svg width="130" height="53" viewBox="0 0 130 53" fill="none" xmlns="http://www.w3.org/2000/svg">
<path fill-rule="evenodd" clip-rule="evenodd" d="M38.1061 12.661C37.1179 13.8429 35.5368 14.775 33.9558 14.6419C33.7581 13.0439 34.5322 11.346 35.438 10.2972C36.4262 9.08208 38.1555 8.21649 39.5554 8.1499C39.7201 9.81451 39.0778 11.4458 38.1061 12.661ZM39.5388 14.9583C38.1459 14.8773 36.875 15.3817 35.8484 15.7891C35.1877 16.0513 34.6283 16.2734 34.2027 16.2734C33.7251 16.2734 33.1426 16.0395 32.4885 15.7768L32.4885 15.7768C31.6315 15.4327 30.6517 15.0393 29.6242 15.0582C27.2691 15.0915 25.0786 16.4398 23.8763 18.5872C21.4059 22.8819 23.234 29.2407 25.6221 32.7363C26.7914 34.4675 28.1913 36.3652 30.0359 36.2986C30.8474 36.2676 31.4312 36.0173 32.0353 35.7582C32.7308 35.4599 33.4533 35.15 34.5815 35.15C35.6706 35.15 36.3615 35.4518 37.0247 35.7415C37.6554 36.017 38.261 36.2815 39.16 36.2653C41.0705 36.232 42.2728 34.5341 43.4421 32.8029C44.704 30.9449 45.2585 29.1316 45.3427 28.8563L45.3494 28.8344L45.3525 28.8245C45.3505 28.8225 45.335 28.8153 45.3075 28.8025L45.3074 28.8025C44.8856 28.6073 41.6614 27.1155 41.6304 23.1149C41.5994 19.757 44.1878 18.0557 44.5953 17.7879C44.6201 17.7716 44.6368 17.7606 44.6444 17.7549C42.9974 15.2912 40.4282 15.0249 39.5388 14.9583ZM52.7641 36.0822V10.131H62.3987C67.3725 10.131 70.8476 13.5934 70.8476 18.6538C70.8476 23.7142 67.3066 27.2099 62.267 27.2099H56.7497V36.0822H52.7641ZM56.7493 13.5266H61.3443C64.8029 13.5266 66.7792 15.391 66.7792 18.6702C66.7792 21.9495 64.8029 23.8305 61.3278 23.8305H56.7493V13.5266ZM84.0067 32.9692C82.9527 35 80.6305 36.2818 78.1271 36.2818C74.4215 36.2818 71.8358 34.0512 71.8358 30.6887C71.8358 27.3595 74.3391 25.4452 78.9671 25.1622L83.9408 24.8626V23.431C83.9408 21.317 82.5739 20.1684 80.1364 20.1684C78.1271 20.1684 76.6613 21.2171 76.3649 22.8151H72.7745C72.8898 19.4526 76.019 17.0056 80.2517 17.0056C84.8137 17.0056 87.7782 19.4193 87.7782 23.1647V36.082H84.0891V32.9692H84.0067ZM79.1973 33.2021C77.0727 33.2021 75.7222 32.1701 75.7222 30.5887C75.7222 28.9574 77.0233 28.0086 79.5102 27.8587L83.9405 27.5758V29.0406C83.9405 31.4709 81.8983 33.2021 79.1973 33.2021ZM100.015 37.0977C98.4175 41.6421 96.5894 43.1402 92.7026 43.1402C92.4061 43.1402 91.4179 43.1069 91.1874 43.0403V39.9275C91.4344 39.9608 92.0438 39.9941 92.3567 39.9941C94.1189 39.9941 95.1071 39.245 95.7165 37.2974L96.0788 36.1489L89.3263 17.2556H93.4931L98.1869 32.5866H98.2692L102.963 17.2556H107.015L100.015 37.0977Z" fill="#909094"/>
</svg>
