<svg width="130" height="53" viewBox="0 0 130 53" fill="none" xmlns="http://www.w3.org/2000/svg">
<path d="M29.2166 28.6287C27.5742 35.3647 20.8733 39.4716 14.2492 37.8013C7.62503 36.1298 3.58805 29.3146 5.23041 22.5785C6.87276 15.8414 13.5737 11.7345 20.1978 13.4059C20.2094 13.4092 20.2199 13.4113 20.2315 13.4145C26.8377 15.1009 30.8568 21.9055 29.2166 28.6287Z" fill="#909094"/>
<path d="M20.0262 23.7734C19.6401 25.3442 17.2844 24.5395 16.5205 24.3469L17.196 21.5979C17.9493 21.7862 20.4123 22.1479 20.0146 23.7734H20.0262ZM19.6053 28.2152C19.1887 29.9273 16.3543 29.0006 15.4348 28.7684L16.1797 25.7326C17.0992 25.9681 20.0409 26.4282 19.6043 28.2152H19.6053ZM22.6944 23.7969C22.9374 22.1233 21.6864 21.2245 19.9915 20.6274L20.547 18.361L19.1761 18.0153L18.6353 20.2229C18.2797 20.133 17.9135 20.0463 17.5506 19.9639L18.0914 17.7328L16.7362 17.3872L16.1807 19.6536L15.3159 19.4578L13.4431 18.9827L13.0843 20.4551C13.0843 20.4551 14.088 20.6905 14.0691 20.7065C14.4521 20.7536 14.7319 21.1003 14.7025 21.492L14.0691 24.0719C14.1165 24.0826 14.1638 24.0986 14.208 24.119L14.0649 24.0794L13.1801 27.6962C13.097 27.9605 12.8192 28.106 12.5583 28.0226C12.5583 28.0418 11.5693 27.7754 11.5693 27.7754L10.897 29.3462L12.6614 29.7903L13.6262 30.0461L13.0664 32.336L14.4216 32.6816L14.9771 30.4152C15.3422 30.5169 15.702 30.6111 16.0545 30.6977L15.5063 32.9716L16.8614 33.313L17.4212 31.0273C19.7379 31.4714 21.4718 31.2938 22.2051 29.1654C22.7964 27.4533 22.1746 26.4678 20.9584 25.8236C21.8464 25.616 22.5029 25.0382 22.6923 23.7969H22.6944Z" fill="white"/>
<path d="M37.0352 34.2275C37.757 34.2297 38.4672 34.0424 39.0974 33.685C39.7455 33.333 40.3168 32.8493 40.7734 32.2629C41.249 31.6433 41.6235 30.9499 41.8813 30.2094C42.1538 29.4433 42.2916 28.6354 42.2906 27.8221C42.3337 26.996 42.1601 26.1732 41.7887 25.438C41.4562 24.8687 40.8387 24.5777 39.9433 24.5777C39.553 24.5916 39.1647 24.6451 38.7849 24.7382C38.3136 24.8452 37.8769 25.0753 37.5182 25.4059L35.4718 34.1088L35.8001 34.1719C35.8979 34.1965 35.9979 34.2125 36.0968 34.219C36.2251 34.235 36.3535 34.2414 36.4829 34.2382L37.0352 34.2265V34.2275ZM41.1017 20.6238C41.996 20.6024 42.8829 20.7886 43.6962 21.1663C44.4022 21.5087 45.0229 22.0095 45.5111 22.6312C46.0109 23.2744 46.378 24.0127 46.5927 24.8024C46.8262 25.6734 46.942 26.5734 46.9367 27.4765C46.9357 30.2876 45.8646 32.9873 43.9477 35.013C43.0186 35.9824 41.9129 36.7582 40.6924 37.2986C39.413 37.8711 38.0284 38.1632 36.6302 38.1547H35.6412C35.1036 38.1365 34.567 38.0894 34.0346 38.0134C33.3844 37.9171 32.7395 37.7866 32.104 37.6207C31.4369 37.4602 30.7899 37.2258 30.1733 36.9219L35.5991 13.8064L40.4452 13.021L38.5145 21.2252C38.9164 21.0401 39.3341 20.8913 39.7613 20.7811C40.2021 20.672 40.6556 20.6174 41.109 20.6206L41.1017 20.6249V20.6238Z" fill="#909094"/>
<path d="M54.1951 18.9388C53.5638 18.9453 52.9473 18.7387 52.4423 18.3535C51.9068 17.9223 51.6164 17.2481 51.67 16.5547C51.6679 16.1224 51.7584 15.6944 51.9362 15.3017C52.1067 14.9186 52.3455 14.573 52.6432 14.2808C52.9399 13.9941 53.284 13.7629 53.6585 13.5971C54.0489 13.4269 54.4697 13.3403 54.8937 13.3413C55.5208 13.3392 56.131 13.5468 56.6318 13.9299C57.1663 14.3622 57.4556 15.0352 57.4041 15.7286C57.4072 16.162 57.3178 16.5911 57.1421 16.9849C56.9717 17.3658 56.7339 17.7104 56.4393 18.0015C56.1436 18.2893 55.7996 18.5204 55.424 18.6852C55.0336 18.8554 54.6128 18.941 54.1888 18.9367H54.1962L54.1951 18.9388ZM51.9436 37.7067H47.3101L51.225 20.9762H55.8859L51.9436 37.7067Z" fill="#909094"/>
<path d="M59.9408 16.8107L64.7868 16.0488L63.5822 20.9775H68.7723L67.8369 24.8576H62.69L61.3159 30.6937C61.197 31.141 61.1234 31.599 61.096 32.0613C61.0676 32.4347 61.1223 32.8103 61.2538 33.1602C61.3833 33.4738 61.6221 33.7274 61.9261 33.8707C62.3628 34.0666 62.8394 34.1565 63.316 34.1297C63.8052 34.1318 64.2924 34.0826 64.7721 33.9842C65.254 33.8879 65.7295 33.7573 66.1935 33.5915L66.5407 37.22C65.8758 37.463 65.1961 37.6641 64.5059 37.8214C63.6537 38.0055 62.7826 38.0911 61.9114 38.0772C60.4711 38.0772 59.359 37.8567 58.5636 37.4255C57.8197 37.0403 57.2232 36.4132 56.8728 35.6428C56.5298 34.8252 56.3804 33.9371 56.4362 33.0511C56.4878 32.011 56.634 30.9773 56.8728 29.9639L59.9429 16.7968V16.8129L59.9408 16.8107Z" fill="#909094"/>
<path d="M68.6016 31.0275C68.5922 29.6397 68.8247 28.2604 69.2887 26.9549C69.7242 25.7211 70.3934 24.5858 71.2582 23.6131C72.1294 22.6489 73.1899 21.8806 74.3704 21.3584C75.6582 20.7935 77.0491 20.511 78.4516 20.5302C79.2985 20.5195 80.1434 20.6105 80.9693 20.8009C81.6637 20.9679 82.3391 21.2076 82.9851 21.5157L81.3754 25.1957C80.9588 25.0234 80.5253 24.8747 80.0781 24.7366C79.5437 24.5858 78.9913 24.5151 78.4368 24.529C77.0365 24.4777 75.6898 25.0791 74.7797 26.163C73.8759 27.2438 73.4224 28.6969 73.4203 30.5225C73.3782 31.4481 73.6181 32.3641 74.1074 33.1463C74.565 33.814 75.4099 34.1468 76.6409 34.1468C77.2301 34.1468 77.8182 34.0826 78.3937 33.9542C78.9071 33.8429 79.41 33.6834 79.8961 33.4791L80.2402 37.265C79.6089 37.5079 78.9639 37.7155 78.3095 37.8845C77.4783 38.075 76.6282 38.1649 75.776 38.152C74.645 38.1852 73.5203 37.9915 72.4629 37.5828C71.6223 37.2382 70.8658 36.7117 70.2461 36.0397C69.658 35.3881 69.2234 34.6091 68.9762 33.7616C68.7142 32.8702 68.5837 31.9435 68.5901 31.0126L68.6016 31.0286V31.0275Z" fill="#909094"/>
<path d="M91.4644 24.5437C90.811 24.5341 90.1724 24.7459 89.6495 25.1451C89.1192 25.5624 88.6742 26.0814 88.3407 26.6731C87.9735 27.3023 87.6978 27.9829 87.5221 28.6923C87.3527 29.3729 87.2644 30.0706 87.2602 30.7736C87.2181 31.6307 87.3896 32.4836 87.7589 33.2562C88.0945 33.849 88.6973 34.1475 89.5738 34.1475C90.2282 34.1593 90.8679 33.9464 91.3887 33.5429C91.92 33.1256 92.3661 32.6066 92.7017 32.016C93.0636 31.3857 93.333 30.7062 93.5013 29.9967C93.6697 29.3151 93.758 28.6153 93.7633 27.9112C93.8064 27.0551 93.6349 26.2002 93.2646 25.4286C92.929 24.8401 92.3219 24.5416 91.4497 24.5416L91.4655 24.5458L91.4644 24.5437ZM89.1477 38.1549C88.1639 38.1785 87.1855 38.004 86.267 37.6445C85.4947 37.3342 84.8045 36.8452 84.2511 36.2149C83.7072 35.5803 83.2979 34.8377 83.0464 34.0352C82.7739 33.1352 82.6424 32.1968 82.6603 31.2551C82.6635 29.9582 82.8676 28.6699 83.2674 27.4382C83.6546 26.198 84.2595 25.0402 85.0507 24.0172C85.8461 22.9953 86.8351 22.1457 87.9577 21.5197C89.1666 20.8584 90.5228 20.5245 91.8968 20.5491C92.8753 20.531 93.8475 20.7043 94.7618 21.0596C95.5351 21.3645 96.2295 21.8471 96.7892 22.4699C97.33 23.1066 97.7382 23.8482 97.9907 24.6496C98.2653 25.5506 98.3958 26.4901 98.3768 27.4339C98.3726 28.7298 98.1738 30.0171 97.7855 31.2509C97.4047 32.4921 96.8113 33.6553 96.0327 34.6868C95.2489 35.713 94.2641 36.5627 93.1404 37.1812C91.9126 37.8457 90.5386 38.1817 89.1477 38.1549Z" fill="#909094"/>
<path d="M105.693 18.9389C105.063 18.9453 104.447 18.7399 103.944 18.3536C103.408 17.9224 103.118 17.2482 103.172 16.5548C103.17 16.1225 103.26 15.6945 103.438 15.3018C103.603 14.9208 103.837 14.5752 104.125 14.2809C104.424 13.9952 104.768 13.7641 105.145 13.5972C105.534 13.427 105.953 13.3403 106.377 13.3414C107.008 13.3361 107.626 13.5437 108.13 13.9299C108.664 14.3623 108.953 15.0353 108.902 15.7287C108.902 16.1632 108.81 16.5912 108.631 16.985C108.464 17.3659 108.226 17.7116 107.933 18.0015C107.637 18.2894 107.293 18.5205 106.918 18.6853C106.53 18.8544 106.114 18.94 105.693 18.9368V18.9389ZM103.446 37.7068H98.812L102.72 20.9763H107.384L103.444 37.7068H103.446Z" fill="#909094"/>
<path d="M110.721 21.7392C111.073 21.6375 111.463 21.5113 111.88 21.3743C112.296 21.2373 112.783 21.1111 113.32 20.9816C113.908 20.8542 114.503 20.759 115.1 20.6948C115.843 20.6146 116.589 20.5771 117.336 20.5814C119.777 20.5814 121.459 21.3026 122.386 22.7451C122.941 23.6097 123.221 24.6637 123.229 25.9082V25.998C123.225 26.807 123.106 27.6962 122.873 28.6636L120.746 37.696H116.097L118.162 28.8519C118.285 28.303 118.386 27.7679 118.46 27.2457C118.54 26.7931 118.54 26.3308 118.46 25.8793C118.383 25.5015 118.178 25.1645 117.881 24.9248C117.469 24.6498 116.978 24.5214 116.487 24.5599C115.868 24.561 115.251 24.6252 114.645 24.7525L111.609 37.712H106.933L110.721 21.7403V21.7392Z" fill="#909094"/>
</svg>
