<svg width="130" height="53" viewBox="0 0 130 53" fill="none" xmlns="http://www.w3.org/2000/svg">
<path d="M123.229 15.1511H117.156L113.64 30.0978L113.145 32.1503C112.805 32.2428 112.468 32.3354 112.127 32.398C111.512 32.5232 110.864 32.5831 110.186 32.5831C109.413 32.5831 108.798 32.4579 108.336 32.2401C107.904 32.0223 107.564 31.712 107.38 31.2765C107.194 30.8736 107.134 30.3755 107.164 29.8148C107.194 29.254 107.318 28.6334 107.472 28.0128L109.322 20.244L110.523 15.0857H104.326L101.52 27.0192C101.18 28.4483 100.996 29.8175 100.934 31.1213C100.872 32.4252 101.088 33.544 101.52 34.5702C101.952 35.5637 102.722 36.3422 103.77 36.9329C104.817 37.5236 106.33 37.804 108.241 37.804C109.567 37.804 110.739 37.6815 111.725 37.4637C111.755 37.4637 111.817 37.4338 111.849 37.4338C111.571 38.6777 111.018 39.6713 110.153 40.4471C109.26 41.2229 107.963 41.6284 106.238 41.6284C105.498 41.6284 104.82 41.5985 104.202 41.506L103 46.5717C103.802 46.6642 104.696 46.7268 105.681 46.7268C107.531 46.7268 109.135 46.5091 110.521 46.1062C111.909 45.6707 113.081 45.0501 114.096 44.179C115.082 43.308 115.916 42.2219 116.594 40.9479C117.272 39.6441 117.796 38.1197 118.198 36.3177L122.392 18.5427L123.223 15.1565L123.229 15.1511ZM97.7935 27.9229C97.4235 29.4772 97.2993 31.0615 97.4532 32.6157C97.6072 34.2 98.2229 36.5927 98.8089 37.8067H92.9516C92.2414 36.5954 92.2738 36.0047 92.1199 35.6318C91.3476 36.2524 90.5158 36.7805 89.5923 37.1861C88.6687 37.5916 87.6507 37.8067 86.4787 37.8067C85.1231 37.8067 83.9511 37.559 82.9951 37.0908C82.0391 36.6253 81.2371 35.972 80.6214 35.1636C80.0057 34.3551 79.5737 33.4242 79.2955 32.3354C79.0174 31.2466 78.8958 30.0978 78.8958 28.8539C78.8958 26.9566 79.2361 25.1873 79.8842 23.5078C80.562 21.8283 81.4883 20.3692 82.6603 19.1253C83.8322 17.8813 86.7001 15.1157 91.3854 15.1157H100.788L97.7962 27.9175L97.7935 27.9229ZM93.5079 20.3094C90.6724 20.3094 90.1486 20.3094 88.9766 20.9C88.1448 21.3356 87.4643 21.9889 86.881 22.7347C86.2977 23.4805 85.8009 24.3516 85.4633 25.3451C85.1231 26.3387 84.9394 27.3649 84.9394 28.4211C84.9394 29.7249 85.1555 30.7838 85.5875 31.5596C86.0196 32.3354 86.8216 32.7083 87.9909 32.7083C88.6066 32.7083 89.1926 32.5831 89.6868 32.3354C90.181 32.0877 90.7346 31.6821 91.2908 31.0914C91.353 30.4082 91.4448 29.6923 91.569 28.9464C91.6932 28.2006 91.8471 27.4847 91.9687 26.8641L93.5106 20.3066M77.2324 24.1284C77.2324 26.1482 76.8921 27.9828 76.2467 29.6596C75.5986 31.3364 74.6751 32.7682 73.5031 33.9795C72.3311 35.1908 70.9431 36.1245 69.3093 36.8077C67.6755 37.4909 65.9175 37.8339 64.0056 37.8339C63.0794 37.8339 62.1558 37.7414 61.1999 37.5862L59.3501 45.0746H53.2768L60.3357 15.1783H68.4452C69.9871 15.1783 71.313 15.426 72.3905 15.8915C73.5004 16.3569 74.3942 17.0102 75.1341 17.8187C75.8444 18.6271 76.3682 19.5907 76.7058 20.6768C77.0758 21.733 77.2297 22.8844 77.2297 24.1257L77.2324 24.1284ZM62.3422 32.613C62.8039 32.7382 63.3899 32.7682 64.0677 32.7682C65.1479 32.7682 66.1039 32.5804 66.9977 32.1775C67.8619 31.7746 68.6315 31.2139 69.2472 30.5007C69.8629 29.7848 70.3274 28.9165 70.6973 27.9202C71.0376 26.9239 71.2212 25.8079 71.2212 24.5939C71.2212 23.3798 70.9755 22.3863 70.4516 21.5778C69.9277 20.7394 69.0339 20.3039 67.7376 20.3039H65.3316L62.3422 32.6103V32.613ZM49.5799 32.613C48.8076 32.613 48.1919 32.4878 47.7301 32.27C47.298 32.0523 46.9578 31.742 46.7742 31.3064C46.5878 30.9036 46.5284 30.4054 46.5581 29.8447C46.5878 29.284 46.7121 28.6633 46.866 28.0427L48.7158 20.274H55.6208L56.8846 15.1157H49.9472L51.5512 8.58821L45.0756 9.61443L40.9763 27.0791C40.6361 28.5082 40.4524 29.8774 40.3903 31.1812C40.3282 32.4851 40.5443 33.6066 40.9763 34.6301C41.4084 35.6236 42.178 36.4021 43.2258 36.9928C44.2736 37.5835 45.7858 37.8639 47.695 37.8639C49.0209 37.8639 50.1929 37.7386 51.1786 37.5209C51.2704 37.4882 51.4243 37.4583 51.5161 37.4283L52.7799 32.1149C52.3479 32.27 51.9158 32.3626 51.5161 32.4252C50.9004 32.5504 50.2523 32.613 49.5745 32.613H49.5799ZM34.1334 15.1484L28.7677 37.8339H34.8409L40.1743 15.1484H34.1307H34.1334ZM40.8224 12.5379L41.7486 8.59094H35.6754L34.7491 12.5379H40.8224ZM20.6906 15.1783C21.9842 15.1783 23.1264 15.426 24.0824 15.8915C25.0384 16.3569 25.808 16.9803 26.4561 17.7887C27.0718 18.5972 27.5363 19.5281 27.8441 20.587C28.152 21.6432 28.3059 22.7946 28.3059 24.0358C28.3059 25.9304 27.9656 27.7024 27.2581 29.4119C26.5479 31.0914 25.6243 32.5804 24.4227 33.8243C23.221 35.0683 21.8032 36.0619 20.1695 36.7778C18.5357 37.4937 16.7777 37.8639 14.8658 37.8639C14.6201 37.8639 14.188 37.8639 13.5723 37.8339C12.9566 37.8339 12.2464 37.7713 11.4768 37.6461C10.6747 37.5209 9.843 37.3657 8.97886 37.148C8.11742 36.9356 7.28029 36.6335 6.48096 36.247L13.5345 6.35613L19.8562 5.35986L17.3583 15.9568C17.9119 15.7091 18.4061 15.5213 18.9624 15.3988C19.4863 15.2436 20.0723 15.181 20.688 15.181L20.6906 15.1783ZM15.387 32.7682C16.3429 32.7682 17.2368 32.5504 18.0685 32.0523C18.9111 31.5814 19.6564 30.9471 20.2586 30.1877C20.8743 29.4092 21.3685 28.5082 21.7087 27.5446C22.049 26.551 22.2326 25.5248 22.2326 24.4686C22.2326 23.1621 22.0166 22.1386 21.5845 21.3927C21.1524 20.6469 20.2586 20.3039 19.0866 20.3039C18.7166 20.3039 18.317 20.3366 17.6986 20.4917C17.0829 20.617 16.559 20.9273 16.0648 21.3628L13.413 32.643C14.215 32.7682 14.4607 32.7981 14.6768 32.7981C14.8307 32.7682 15.0764 32.7682 15.387 32.7682Z" fill="#909094"/>
</svg>
