<svg width="130" height="53" viewBox="0 0 130 53" fill="none" xmlns="http://www.w3.org/2000/svg">
<path d="M48.3757 22.8689C48.2584 22.9403 48.1188 22.9651 47.9842 22.9384C47.8496 22.9118 47.7298 22.8356 47.6482 22.7249C47.2475 22.1474 46.7098 21.6792 46.0837 21.3626C45.4576 21.0459 44.7628 20.8908 44.062 20.9112C41.3297 20.9112 39.6527 23.0814 39.6527 26.1808C39.6527 29.2801 41.3605 31.4916 44.0928 31.4916C44.8029 31.5086 45.5056 31.3434 46.1344 31.0116C46.7631 30.6798 47.2971 30.1924 47.6858 29.5956C47.7635 29.4833 47.8803 29.4045 48.0132 29.3747C48.146 29.3448 48.2852 29.3662 48.4031 29.4345L49.701 30.1887C49.7719 30.2248 49.8342 30.2758 49.8837 30.3382C49.9332 30.4006 49.9687 30.473 49.9878 30.5504C50.0069 30.6278 50.0092 30.7085 49.9944 30.7869C49.9797 30.8653 49.9483 30.9396 49.9024 31.0047C49.2679 31.9593 48.4024 32.7367 47.3868 33.2638C46.3713 33.7908 45.239 34.0505 44.0962 34.0183C39.7278 34.0183 36.7666 30.8368 36.7666 26.1981C36.7666 21.5593 39.7278 18.4187 44.0313 18.4187C45.1551 18.3874 46.2694 18.6329 47.2768 19.1337C48.2842 19.6346 49.154 20.3755 49.8102 21.2918C49.8554 21.3534 49.8874 21.4238 49.9044 21.4984C49.9213 21.5731 49.9228 21.6504 49.9087 21.7256C49.8946 21.8009 49.8652 21.8724 49.8224 21.9358C49.7797 21.9991 49.7244 22.053 49.66 22.094L48.3757 22.8689Z" fill="#909094"/>
<path fill-rule="evenodd" clip-rule="evenodd" d="M57.9255 32.547V33.1777C57.9255 33.2518 57.9404 33.3252 57.9693 33.3933C57.9983 33.4615 58.0407 33.523 58.094 33.5743C58.1473 33.6255 58.2104 33.6654 58.2794 33.6916C58.3485 33.7177 58.4221 33.7295 58.4959 33.7263H59.9235C59.9953 33.7263 60.0664 33.7121 60.1327 33.6846C60.199 33.657 60.2592 33.6166 60.31 33.5656C60.3607 33.5147 60.401 33.4542 60.4284 33.3877C60.4559 33.3211 60.47 33.2498 60.47 33.1777V26.0122C60.47 23.4168 58.6326 22.3438 56.0299 22.3438C54.567 22.3471 53.1271 22.7097 51.8358 23.3997C51.7124 23.4687 51.6203 23.5826 51.5783 23.7179C51.5363 23.8532 51.5478 23.9995 51.6104 24.1265L52.0782 25.1071C52.1104 25.1729 52.1554 25.2315 52.2108 25.2793C52.2661 25.3271 52.3305 25.3632 52.4001 25.3853C52.4697 25.4075 52.543 25.4152 52.6157 25.408C52.6884 25.4009 52.7588 25.379 52.8228 25.3437C53.7448 24.8627 54.7656 24.6033 55.8045 24.586C56.7097 24.586 57.7787 24.8364 57.7787 25.7654C57.7787 26.7373 56.6092 26.903 55.1663 27.1074C55.05 27.1238 54.9337 27.1405 54.8175 27.1573C53.3284 27.3665 50.9136 27.8328 50.9136 30.5515C50.9136 32.7355 52.4881 33.9801 54.756 33.9801C56.2896 33.9801 57.2425 33.4315 57.9255 32.547ZM55.6872 28.852C56.5497 28.7 57.3319 28.5623 57.7787 28.2236V29.4991C57.7787 31.1653 56.5833 31.8818 55.3024 31.8818C54.271 31.8818 53.5572 31.4189 53.5572 30.4281C53.5572 29.3516 54.3769 29.0876 55.364 28.9094C55.4726 28.8897 55.5804 28.8708 55.6872 28.852Z" fill="#909094"/>
<path d="M62.8165 30.8876C62.9086 30.78 63.0387 30.7123 63.1794 30.6989C63.3202 30.6855 63.4607 30.7274 63.5713 30.8157C64.4845 31.5079 65.6037 31.8703 66.7477 31.8442C67.926 31.8442 68.7969 31.4637 68.7969 30.538C68.7969 29.6946 67.9977 29.5266 66.0646 29.1872C64.0153 28.8443 62.0548 28.1586 62.0548 25.8136C62.0548 23.369 64.1554 22.3372 66.5496 22.3372C68.051 22.3148 69.5166 22.7975 70.713 23.7084C70.7714 23.7543 70.8198 23.8116 70.8554 23.8769C70.891 23.9422 70.913 24.0141 70.9201 24.0882C70.9271 24.1623 70.919 24.237 70.8963 24.3079C70.8737 24.3787 70.8368 24.4442 70.7881 24.5004L70.105 25.3061C70.0145 25.4141 69.8861 25.4833 69.7464 25.4992C69.6066 25.5152 69.466 25.4767 69.3536 25.3918C68.512 24.7738 67.4933 24.4466 66.4505 24.4593C65.443 24.4593 64.5618 24.7542 64.5618 25.553C64.5618 26.441 65.7982 26.6089 67.038 26.8215C69.6849 27.2844 71.3654 28.042 71.3654 30.25C71.3654 32.5676 69.5176 34.0007 66.5838 34.0007C64.9802 34.05 63.4099 33.5358 62.1437 32.547C62.0869 32.5003 62.0399 32.4428 62.0055 32.3777C61.9711 32.3126 61.9499 32.2413 61.9432 32.1679C61.9365 32.0945 61.9445 32.0205 61.9666 31.9502C61.9887 31.8799 62.0245 31.8148 62.0719 31.7585L62.8165 30.8876ZM72.9877 33.1778V19.2239C72.9877 19.1518 73.0018 19.0805 73.0293 19.014C73.0567 18.9474 73.097 18.8869 73.1477 18.836C73.1985 18.785 73.2587 18.7446 73.325 18.7171C73.3913 18.6895 73.4624 18.6753 73.5341 18.6753H75.1087C75.4105 18.6753 75.6552 18.9209 75.6552 19.2239V23.9895C76.0472 23.4644 76.5587 23.041 77.1469 22.7547C77.7351 22.4684 78.383 22.3275 79.0365 22.3437C81.3658 22.3437 82.7319 24.01 82.7319 26.3894V33.1778C82.732 33.2499 82.7178 33.3212 82.6904 33.3877C82.6629 33.4543 82.6227 33.5148 82.5719 33.5657C82.5212 33.6167 82.461 33.6571 82.3947 33.6846C82.3284 33.7122 82.2573 33.7264 82.1855 33.7264H80.611C80.466 33.7264 80.327 33.6686 80.2245 33.5657C80.122 33.4628 80.0645 33.3233 80.0645 33.1778V27.0066C80.0645 25.8237 79.6854 24.7506 78.1758 24.7506C76.7447 24.7506 75.6552 25.7621 75.6552 27.4488V33.1812C75.6552 33.3267 75.5976 33.4662 75.4951 33.5691C75.3926 33.672 75.2536 33.7298 75.1087 33.7298H73.5341C73.462 33.7302 73.3904 33.7162 73.3237 33.6886C73.257 33.661 73.1964 33.6203 73.1455 33.5689C73.0947 33.5175 73.0545 33.4564 73.0274 33.3893C73.0003 33.3222 72.9868 33.2503 72.9877 33.1778Z" fill="#909094"/>
<path fill-rule="evenodd" clip-rule="evenodd" d="M98.9248 29.9961L100.059 33.3561C100.093 33.4654 100.16 33.5613 100.252 33.6301C100.343 33.699 100.453 33.7375 100.567 33.7401H102.518C102.606 33.7405 102.693 33.7195 102.771 33.6788C102.849 33.6382 102.916 33.5792 102.967 33.5068C103.018 33.4344 103.05 33.3508 103.062 33.2631C103.074 33.1753 103.064 33.0861 103.033 33.003L97.8931 19.049C97.8537 18.9437 97.7833 18.8528 97.6912 18.7885C97.5992 18.7242 97.4898 18.6895 97.3777 18.689H94.8538C94.7439 18.6877 94.6362 18.7197 94.5447 18.7809C94.4533 18.8421 94.3824 18.9296 94.3413 19.0319L89.1802 32.9892C89.1501 33.0721 89.1402 33.161 89.1515 33.2484C89.1629 33.3359 89.195 33.4193 89.2453 33.4916C89.2956 33.564 89.3624 33.6231 89.4403 33.6639C89.5182 33.7048 89.6047 33.7262 89.6925 33.7264H91.5399C91.6538 33.7268 91.7649 33.6912 91.8575 33.6248C91.9502 33.5583 92.0197 33.4644 92.0563 33.3561L93.193 29.9961H98.9248ZM93.8837 27.6545L96.0897 21.1199L98.211 27.6545H93.8837ZM106.992 24.0101V23.146C106.996 23.0717 106.984 22.9974 106.959 22.9276C106.933 22.8578 106.893 22.7941 106.842 22.7404C106.79 22.6865 106.729 22.6437 106.661 22.6144C106.593 22.5852 106.52 22.5701 106.446 22.5702H104.871C104.569 22.5702 104.324 22.8158 104.324 23.1187V36.8326C104.324 37.1356 104.569 37.3812 104.871 37.3812H106.446C106.747 37.3812 106.992 37.1356 106.992 36.8326V32.283C107.377 32.8265 107.891 33.2652 108.487 33.5596C109.084 33.8541 109.744 33.995 110.408 33.9698C113.43 33.9698 115.383 31.4294 115.383 28.1414C115.383 24.8536 113.43 22.3438 110.408 22.3438C109.746 22.3169 109.087 22.455 108.491 22.7457C107.895 23.0365 107.38 23.4709 106.992 24.0101ZM112.579 28.1414C112.579 30.058 111.695 31.642 109.847 31.642C107.966 31.642 106.992 30.0613 106.992 28.1414C106.992 26.2214 108.017 24.682 109.847 24.682C111.677 24.682 112.579 26.2249 112.579 28.1414ZM119.697 24.01V23.1459C119.701 23.0716 119.69 22.9971 119.665 22.9271C119.639 22.8572 119.6 22.7932 119.549 22.7391C119.498 22.6852 119.436 22.6423 119.367 22.6132C119.299 22.5841 119.225 22.5694 119.151 22.57H117.576C117.431 22.57 117.292 22.6279 117.19 22.7307C117.087 22.8336 117.03 22.9731 117.03 23.1185V36.8326C117.03 37.1355 117.274 37.381 117.576 37.381H119.151C119.453 37.381 119.697 37.1355 119.697 36.8325V32.2828C120.083 32.8258 120.597 33.2641 121.193 33.5585C121.79 33.8529 122.449 33.9942 123.113 33.9697C126.139 33.9697 128.093 31.4292 128.093 28.1412C128.093 24.8534 126.139 22.3437 123.113 22.3437C122.451 22.3174 121.793 22.4557 121.197 22.7464C120.601 23.0371 120.086 23.4712 119.697 24.01ZM125.288 28.1412C125.288 30.0578 124.404 31.6418 122.556 31.6418C120.685 31.6418 119.697 30.0612 119.697 28.1412C119.697 26.2213 120.725 24.6819 122.556 24.6819C124.387 24.6819 125.288 26.2247 125.288 28.1412Z" fill="#909094"/>
<path fill-rule="evenodd" clip-rule="evenodd" d="M20.8433 11.3931C23.8216 11.3931 25.2868 11.3931 26.8955 11.9005C27.7588 12.2143 28.5428 12.7148 29.1921 13.3665C29.8413 14.0182 30.3399 14.8052 30.6525 15.6718C31.158 17.273 31.158 18.7575 31.158 21.7334V30.6886C31.158 33.6612 31.158 35.1456 30.6525 36.7502C30.3399 37.6168 29.8413 38.4038 29.192 39.0555C28.5428 39.7072 27.7588 40.2077 26.8955 40.5215C25.3004 41.0289 23.8216 41.0289 20.8569 41.0289H11.9084C8.94725 41.0289 7.46843 41.0289 5.86988 40.5215C5.00658 40.2077 4.22256 39.7072 3.57332 39.0555C2.92408 38.4038 2.4255 37.6168 2.11288 36.7502C1.62109 35.149 1.62109 33.6782 1.62109 30.6886V21.7198C1.62109 18.7472 1.62109 17.2628 2.12656 15.6581C2.43917 14.7915 2.93774 14.0044 3.58698 13.3527C4.23622 12.701 5.02025 12.2005 5.88356 11.8867C7.46497 11.3931 8.94725 11.3931 11.9085 11.3931H20.8433Z" fill="#909094"/>
<path d="M17.1273 21.1062C18.5783 21.1085 19.9817 21.6258 21.0893 22.5667C21.2036 22.6708 21.3533 22.7269 21.5076 22.7238C21.6619 22.7206 21.8092 22.6583 21.9192 22.5496L23.0599 21.4011C23.1172 21.3441 23.162 21.2759 23.1917 21.2006C23.2213 21.1254 23.2352 21.0449 23.2323 20.964C23.2294 20.8832 23.2098 20.8038 23.1749 20.7309C23.14 20.658 23.0904 20.5932 23.0292 20.5404C22.1333 19.7754 21.0972 19.1932 19.9792 18.8263L20.3208 17.136C20.3385 17.0491 20.3367 16.9594 20.3156 16.8733C20.2944 16.7872 20.2544 16.7069 20.1985 16.6383C20.1425 16.5697 20.0721 16.5144 19.9922 16.4766C19.9123 16.4387 19.8251 16.4192 19.7367 16.4194H17.5406C17.4045 16.4193 17.2725 16.4658 17.1663 16.5512C17.0601 16.6366 16.9861 16.7559 16.9565 16.8892L16.6491 18.4011C13.7255 18.5452 11.2459 19.9988 11.2459 22.9782C11.2459 25.5529 13.2952 26.6604 15.4606 27.4352C17.5098 28.1997 18.596 28.4844 18.596 29.5609C18.596 30.6374 17.5133 31.3162 15.9183 31.3162C14.3704 31.3411 12.8749 30.7537 11.7548 29.681C11.6437 29.5713 11.494 29.5098 11.3381 29.5098C11.1823 29.5098 11.0326 29.5713 10.9215 29.681L9.6987 30.8808C9.64157 30.9361 9.59613 31.0024 9.5651 31.0757C9.53406 31.1491 9.51807 31.2279 9.51807 31.3076C9.51807 31.3873 9.53406 31.4661 9.5651 31.5395C9.59613 31.6128 9.64157 31.6791 9.6987 31.7344C10.695 32.6712 11.9109 33.3399 13.2336 33.6784L12.8921 35.2453C12.8741 35.3328 12.8754 35.4232 12.896 35.5102C12.9166 35.5972 12.956 35.6785 13.0114 35.7485C13.0668 35.8185 13.1368 35.8755 13.2165 35.9153C13.2963 35.9551 13.3837 35.9769 13.4727 35.979H15.6757C15.8128 35.9798 15.9461 35.9332 16.053 35.847C16.16 35.7609 16.2342 35.6404 16.2632 35.5059L16.5808 34.0213C20.0851 33.8053 22.2266 31.9129 22.2266 29.1426C22.2266 26.5918 20.0919 25.5153 17.4996 24.6376C16.0173 24.0787 14.7364 23.7118 14.7364 22.6079C14.7364 21.504 15.9318 21.1062 17.1273 21.1062Z" fill="white"/>
</svg>
