<svg width="130" height="53" viewBox="0 0 130 53" fill="none" xmlns="http://www.w3.org/2000/svg">
<path d="M8.90931 16.8267H3.24316V36.7474H8.90931C11.8954 36.7474 14.0933 36.0226 15.9828 34.4379C18.2493 32.5436 19.5881 29.7157 19.5881 26.787C19.5538 20.9273 15.1923 16.8267 8.90931 16.8267ZM13.4422 31.7844C12.2405 32.8875 10.6618 33.3691 8.15546 33.3691H7.12503V20.2049H8.15546C10.6618 20.2049 12.1719 20.6521 13.4422 21.824C14.7811 23.0304 15.5716 24.8559 15.5716 26.787C15.5716 28.6837 14.7811 30.578 13.4422 31.7844Z" fill="#909094"/>
<path d="M25.2149 16.8267H21.3354V36.7474H25.2149V16.8267Z" fill="#909094"/>
<path d="M34.6578 24.48C32.3228 23.6176 31.6717 23.0328 31.6717 21.9641C31.6717 20.7233 32.8735 19.7578 34.555 19.7578C35.7225 19.7578 36.6501 20.2393 37.6781 21.3769L39.7047 18.7234C38.0575 17.2763 36.0651 16.5171 33.8672 16.5171C30.3647 16.5171 27.6871 18.9642 27.6871 22.2049C27.6871 24.9615 28.9231 26.3399 32.5627 27.6494C34.0728 28.1997 34.8634 28.5462 35.2403 28.7869C36.0309 29.3029 36.4078 30.0277 36.4078 30.8557C36.4078 32.4748 35.1375 33.6467 33.4218 33.6467C31.5689 33.6467 30.0906 32.7156 29.1997 30.9933L26.6934 33.4059C28.4776 36.025 30.607 37.197 33.5588 37.197C37.5753 37.197 40.39 34.5091 40.39 30.6493C40.39 27.5143 39.0855 26.0991 34.6553 24.48H34.6578Z" fill="#909094"/>
<path d="M41.5942 26.7866C41.5942 32.6464 46.1614 37.1597 52.065 37.1597C53.7122 37.1597 55.1538 36.8158 56.9063 35.9878V31.4032C55.3619 32.9535 53.9888 33.5751 52.2363 33.5751C48.3569 33.5751 45.5765 30.7496 45.5765 26.7178C45.5765 22.686 48.4254 19.895 52.065 19.895C53.9178 19.895 55.2933 20.551 56.9063 22.1357V17.5511C55.2248 16.6887 53.8175 16.3447 52.1335 16.3447C46.296 16.3791 41.5942 20.9981 41.5942 26.7866Z" fill="#909094"/>
<path d="M87.5645 30.1997L82.2777 16.8267H78.0557L86.4998 37.2658H88.5607L97.1443 16.8267H92.9565L87.5645 30.1997Z" fill="#909094"/>
<path d="M98.8945 36.7474H109.847V33.3715H102.74V27.9934H109.573V24.6175H102.74V20.2049H109.847V16.8267H98.8945V36.7474Z" fill="#909094"/>
<path d="M125.16 22.7208C125.16 18.9986 122.619 16.8267 118.155 16.8267H112.42V36.7474H116.299V28.7525H116.813L122.169 36.7474H126.941L120.693 28.3717C123.542 27.7526 125.157 25.7526 125.157 22.7208H125.16ZM117.401 25.9959H116.268V19.9641H117.469C119.873 19.9641 121.177 20.9641 121.177 22.9272C121.177 24.8903 119.873 25.9934 117.401 25.9934V25.9959Z" fill="#909094"/>
<path d="M68.716 37.4354C74.5367 37.4354 79.2553 32.6987 79.2553 26.8559C79.2553 21.013 74.5367 16.2764 68.716 16.2764C62.8954 16.2764 58.1768 21.013 58.1768 26.8559C58.1768 32.6987 62.8954 37.4354 68.716 37.4354Z" fill="#909094"/>
<path opacity="0.65" d="M68.716 37.4354C74.5367 37.4354 79.2553 32.6987 79.2553 26.8559C79.2553 21.013 74.5367 16.2764 68.716 16.2764C62.8954 16.2764 58.1768 21.013 58.1768 26.8559C58.1768 32.6987 62.8954 37.4354 68.716 37.4354Z" fill="#909094"/>
</svg>
