<svg width="130" height="53" viewBox="0 0 130 53" fill="none" xmlns="http://www.w3.org/2000/svg">
<path d="M99.9925 31.665H100.053L105.093 18.9687H108.635L97.7464 44.4237H94.3861L98.4339 35.5194L91.2894 18.9687H94.8314L99.9925 31.665ZM36.8919 8.74503C40.5146 8.70392 43.9956 10.085 46.6468 12.5995L42.4779 16.8456C40.9803 15.3823 38.9764 14.578 36.8919 14.6191C33.087 14.6191 29.8688 17.237 28.7152 20.7616L28.7093 20.7568C28.1073 22.6072 28.1097 24.6005 28.7152 26.4296L28.8294 26.7558C30.0707 30.0948 33.206 32.5517 36.8919 32.5517C38.855 32.5516 40.5345 32.0357 41.85 31.1288C43.3878 30.0982 44.4402 28.4493 44.764 26.6152H36.891V20.9062H50.6332C50.795 21.8954 50.8763 22.9052 50.8763 23.915C50.8763 28.308 49.3944 32.0243 46.7992 34.5946L46.5453 34.8398L46.3167 35.0487C43.9288 37.1873 40.6954 38.4256 36.8919 38.4257C31.3869 38.4257 26.3465 35.2723 23.8773 30.2636V30.2431L23.6878 29.8485C21.8554 25.8826 21.8553 21.2882 23.6878 17.3222L23.8773 16.9277C26.3465 11.919 31.3869 8.74503 36.8919 8.74503ZM82.9515 18.3915C85.3599 18.3915 87.263 19.0511 88.6595 20.3495C90.0558 21.6481 90.7435 23.4622 90.7435 25.7499V36.6532H87.6273V34.2001H87.4847C86.1288 36.2198 84.3482 37.2303 82.1019 37.2304C80.1996 37.2303 78.58 36.6531 77.305 35.4989C76.0504 34.4272 75.3418 32.8402 75.3822 31.1708C75.3822 29.3365 76.0703 27.8931 77.4261 26.8007C78.782 25.7084 80.6039 25.1729 82.8705 25.1728C84.8131 25.1728 86.3921 25.5435 87.6468 26.2441V25.4814C87.6467 24.3478 87.1609 23.2761 86.3109 22.5341C85.4407 21.7511 84.3276 21.3183 83.1742 21.3183C81.3529 21.3184 79.916 22.1016 78.8636 23.6679L75.9896 21.8329C77.5277 19.5454 79.8554 18.3916 82.9515 18.3915ZM67.5091 10.8066C69.5935 10.7655 71.6177 11.5688 73.0951 13.0526C76.0499 15.8559 76.232 20.5764 73.4593 23.6064L73.0951 23.9775C71.5773 25.4406 69.7149 26.1824 67.5091 26.1825H62.1253V36.6532H58.8666V10.8066H67.5091ZM83.3773 27.8525C82.0618 27.8526 80.9485 28.1823 80.058 28.8212C79.1878 29.4601 78.7416 30.2637 78.7416 31.2323C78.7416 32.0979 79.147 32.9017 79.8148 33.3964C80.5434 33.9734 81.4343 34.2831 82.3451 34.2626C83.7214 34.2626 85.0375 33.7059 86.0091 32.7167C87.0819 31.6862 87.6282 30.4698 87.6283 29.0683C86.6162 28.2439 85.199 27.8318 83.3773 27.8525ZM62.1253 23.0077H67.5902C68.8046 23.0489 69.979 22.554 70.8089 21.6679C72.5092 19.8747 72.4694 16.9891 70.7084 15.2577C69.8784 14.4334 68.7642 13.9804 67.5902 13.9804H62.1253V23.0077Z" fill="#909094"/>
</svg>
