<svg width="130" height="53" viewBox="0 0 130 53" fill="none" xmlns="http://www.w3.org/2000/svg">
<path d="M83.2809 19.9893C81.173 19.9893 79.0855 21.88 78.8625 24.5868V20.2082H75.8223V33.4237H78.903V27.0349C78.903 25.2436 80.2002 22.716 83.3012 22.716V19.9893H83.2809ZM115.568 31.314V22.2582H117.351C119.722 22.2582 121.668 23.7111 121.668 26.7164C121.668 29.7218 119.743 31.314 117.351 31.314H115.568ZM112.507 33.4237H117.716C120.918 33.4237 124.85 31.3737 124.85 26.7164C124.85 22.0592 120.918 20.2281 117.716 20.2281H112.507V33.4237ZM100.853 26.8558C100.853 24.4475 102.11 22.4771 104.197 22.4771C106.285 22.4771 107.319 24.4475 107.319 26.8558C107.319 29.264 106.204 31.2344 104.197 31.2344C102.191 31.2344 100.853 29.264 100.853 26.8558ZM97.7319 26.9951C97.7319 30.9358 99.8195 33.7023 103.083 33.7023C105.454 33.7023 106.873 32.1698 107.623 29.682V33.4237H110.663V20.2082H107.623V23.7111C106.954 21.3825 105.535 19.9893 103.306 19.9893C99.9613 20.0092 97.7319 22.9946 97.7319 26.9951ZM28.355 33.7223C24.5649 33.7223 22.3354 30.7368 22.3354 27.015C22.3354 23.2931 24.7879 20.0092 29.4697 20.0092C34.1516 20.0092 35.9352 23.2135 36.0163 25.0446H32.5302C32.4491 24.0295 31.5573 22.497 29.4089 22.497C27.0984 22.497 25.6188 24.4674 25.6188 26.8757C25.6188 29.2839 27.0984 31.2543 29.4089 31.2543C31.4965 31.2543 32.3883 29.6422 32.7531 28.0499H29.4089V26.7363H36.4216V33.4237H33.3409V29.1844C33.1179 30.7169 32.1451 33.7223 28.355 33.7223ZM42.6641 33.7223C39.7658 33.7223 37.9822 31.8315 37.9822 28.03V20.2281H41.1035V28.03C41.1035 30.0004 42.0763 30.9557 43.6978 30.9557C46.9001 30.9557 48.0756 27.0946 48.0756 24.3878V20.2281H51.1969V33.4237H48.1567V28.5276C47.5689 31.2344 45.9272 33.7223 42.6641 33.7223ZM69.8636 19.9893C67.2085 19.9893 65.5263 22.5169 64.979 24.8456C64.8777 21.7208 63.3171 19.9893 60.8038 19.9893C58.6352 19.9893 56.6287 21.88 56.1017 24.8854V20.2082H53.0615V33.4237H56.1422V28.6868C56.1422 27.5125 56.6489 22.6961 59.7499 22.6961C61.7564 22.6961 61.9591 24.4674 61.9591 26.9155V33.4237H65.0398V28.6868C65.0398 27.5125 65.5668 22.6961 68.6678 22.6961C70.6743 22.6961 70.877 24.4674 70.877 26.9155V33.4237H73.9577V25.6019C73.9779 21.8601 72.62 19.9893 69.8636 19.9893ZM89.8882 19.9893C85.8954 19.9893 83.1998 23.0543 83.1998 26.8558C83.1998 31.0354 85.7738 33.7223 89.8882 33.7223C94.0026 33.7223 96.6374 30.6572 96.6374 26.8558C96.6171 22.6761 94.0026 19.9893 89.8882 19.9893ZM89.8882 31.3737C87.5574 31.3737 86.0576 29.4431 86.0576 26.8558C86.0576 24.2684 87.5574 22.3378 89.8882 22.3378C92.219 22.3378 93.658 24.2684 93.658 26.8558C93.658 29.4431 92.1987 31.3737 89.8882 31.3737Z" fill="#909094"/>
<path d="M10.7012 34.1803C14.8205 34.1803 18.1598 30.9011 18.1598 26.856C18.1598 22.8109 14.8205 19.5317 10.7012 19.5317C6.58199 19.5317 3.24268 22.8109 3.24268 26.856C3.24268 30.9011 6.58199 34.1803 10.7012 34.1803Z" fill="#909094"/>
<path d="M10.0527 30.5378C7.86379 30.5378 6.58691 28.8261 6.58691 26.6766C6.58691 24.5271 8.00566 22.6562 10.7013 22.6562C13.3969 22.6562 14.4306 24.5072 14.4711 25.5422H12.4646C12.4241 24.9451 11.9174 24.0694 10.6608 24.0694C9.40415 24.0694 8.47182 25.2038 8.47182 26.5771C8.47182 27.9504 9.32307 29.0849 10.6608 29.0849C11.8566 29.0849 12.3835 28.1694 12.5862 27.2339H10.6405V26.4776H14.6941V30.3388H12.9105V27.9106C12.7889 28.8261 12.2416 30.5378 10.0527 30.5378Z" fill="white"/>
</svg>
