<svg width="130" height="53" viewBox="0 0 130 53" fill="none" xmlns="http://www.w3.org/2000/svg">
<path d="M116.948 32.0488C115.205 32.0555 113.797 33.4794 113.803 35.2293C113.803 35.2315 113.803 35.2333 113.803 35.2351C113.793 36.985 115.198 38.4116 116.942 38.4213C116.943 38.4213 116.946 38.4213 116.947 38.4213C118.682 38.4213 120.092 36.9939 120.092 35.2351C120.102 33.4852 118.697 32.0586 116.954 32.0488C116.952 32.0488 116.95 32.0488 116.948 32.0488ZM106.599 29.5881C106.599 27.1776 104.566 25.2262 102.059 25.2262C99.5509 25.2262 97.5183 27.1807 97.5183 29.5881C97.5183 31.9955 99.5541 33.9473 102.061 33.9473C104.569 33.9473 106.598 31.9959 106.598 29.5881H106.599ZM106.617 21.1098H111.626V38.0633H106.617V36.9792C105.156 37.9912 103.423 38.5325 101.649 38.5308C96.7721 38.5308 92.8194 34.5269 92.8194 29.5876C92.8194 24.6483 96.7725 20.6445 101.649 20.6445C103.493 20.6445 105.2 21.2161 106.617 22.196V21.1094V21.1098ZM66.5196 23.3188V21.1125H61.3895V38.0628H66.5315V30.1472C66.5315 27.4761 69.3871 26.0429 71.3696 26.0429H71.4286V21.1125C69.3928 21.1125 67.5255 21.995 66.5196 23.3188ZM53.7401 29.5881C53.7401 27.1776 51.7075 25.2262 49.1998 25.2262C46.6921 25.2262 44.6595 27.1807 44.6595 29.5881C44.6595 31.9955 46.6952 33.9473 49.2025 33.9473C51.7097 33.9473 53.7397 31.9959 53.7397 29.5881H53.7401ZM53.7579 21.1098H58.7701V38.0633H53.7579V36.9792C52.3416 37.9565 50.6338 38.5308 48.7899 38.5308C43.9133 38.5308 39.9606 34.5269 39.9606 29.5876C39.9606 24.6483 43.9137 20.6445 48.7899 20.6445C50.6338 20.6445 52.3416 21.2161 53.7579 22.196V21.1094V21.1098ZM83.9164 20.6565C81.9161 20.6565 80.0222 21.2842 78.754 23.0199V21.1129H73.7656V38.0633H78.816V29.1557C78.816 26.5793 80.5212 25.3147 82.5773 25.3147C84.7779 25.3147 86.0466 26.6474 86.0466 29.1201V38.0633H91.0499V27.2839C91.0499 23.3392 87.9525 20.6565 83.9169 20.6565H83.9164ZM32.6622 38.0633H37.9075V13.5585H32.6622V38.0633ZM9.62251 38.069H15.1776V13.5527H9.62517L9.62207 38.0695L9.62251 38.069ZM29.0511 13.5527C29.0511 18.8594 27.0096 23.7987 23.3693 27.4681L31.0452 38.0695H24.1864L15.8467 26.55L18.0003 24.9152C21.5551 22.2312 23.6361 18.0178 23.6113 13.5527H29.0511Z" fill="#909094"/>
</svg>
