<svg width="130" height="53" viewBox="0 0 130 53" fill="none" xmlns="http://www.w3.org/2000/svg">
<path d="M48.6454 19.3574H47.9932C47.3568 19.3574 47.0775 19.5443 46.658 20.2458L43.1804 25.9027L41.7367 20.3084C41.5658 19.6382 41.3796 19.3733 40.6501 19.3733H40.1068C39.3926 19.3733 38.9424 19.7939 38.8028 20.542L37.1883 29.6428C37.064 30.3283 37.3745 30.6868 37.9643 30.6868H38.2129C38.834 30.6868 39.1133 30.3751 39.2218 29.7049L40.5258 22.3497L41.7832 27.2739C41.8917 27.7725 41.9848 28.0997 42.9322 28.0997C43.7241 28.0997 43.9103 27.8193 44.1897 27.3673L47.2632 22.3025L45.9592 29.6577C45.8349 30.3592 46.1454 30.7017 46.7199 30.7017H46.9839C47.6049 30.7017 47.8843 30.3746 47.9927 29.7199L49.5919 20.557C49.7316 19.8247 49.3745 19.3569 48.645 19.3569L48.6454 19.3574Z" fill="#909094"/>
<path d="M58.3476 25.8711C58.2699 23.6583 56.7797 22.0376 54.2648 22.0376C51.3928 22.0376 49.6386 24.3906 49.7163 26.9618C49.8095 29.3148 51.424 30.8266 53.7992 30.8266C56.7489 30.8112 58.4254 28.4423 58.3476 25.8711ZM53.8146 29.2059C52.464 29.2059 51.6102 28.2241 51.5637 26.8838C51.5017 25.1542 52.6349 23.627 54.2494 23.627C55.4915 23.627 56.4692 24.6088 56.5162 25.9645C56.5627 27.7876 55.4296 29.2059 53.815 29.2059H53.8146Z" fill="#909094"/>
<path d="M64.7597 22.0371C63.5641 22.0371 62.6172 22.6292 61.9808 23.6265C62.0427 22.489 61.4221 22.1614 60.7853 22.1614C60.4901 22.1614 60.2573 22.2394 60.242 22.2703L58.938 29.6723C58.8137 30.4359 59.2331 30.6541 59.7918 30.6541H60.0246C60.6302 30.6541 60.8784 30.4046 61.0027 29.6723L61.7788 25.2308C62.3379 24.249 62.9585 23.7816 63.9212 23.7816C64.884 23.7816 65.458 24.3583 65.4738 25.3088C65.4892 25.5584 65.4273 25.8696 65.3807 26.244L64.7755 29.6723C64.6512 30.4359 65.086 30.6541 65.6293 30.6541H65.8621C66.4673 30.6541 66.7159 30.4046 66.8402 29.6723L67.5078 25.8855C67.5855 25.4649 67.6321 25.0906 67.6163 24.748C67.5697 23.1587 66.5139 22.0366 64.7597 22.0366V22.0371Z" fill="#909094"/>
<path d="M101.49 22.037C100.512 22.037 99.782 22.5978 99.2853 23.6264C99.363 22.4889 98.742 22.1614 98.1056 22.1614C97.795 22.1614 97.5776 22.2394 97.5623 22.2703L96.2429 29.6722C96.1186 30.4358 96.6153 30.6541 97.1745 30.6541H97.4072C97.9352 30.6541 98.1833 30.4045 98.3234 29.6722L98.7582 27.1945C99.0841 25.2621 99.7983 23.9218 100.947 23.9218C101.506 23.9218 101.863 24.1555 102.096 24.4204C102.127 24.4517 102.997 24.1087 102.965 23.0801C102.919 22.4413 102.282 22.0361 101.491 22.0361L101.49 22.037Z" fill="#909094"/>
<path d="M111.519 22.1621C110.711 22.1621 110.261 22.5519 109.997 23.58C109.485 22.614 108.429 22.0215 107.203 22.0215C104.595 22.0215 102.779 24.359 102.779 27.0083C102.779 29.1898 104.114 30.8105 106.225 30.8105C107.514 30.8105 108.507 30.2805 109.144 29.2052C109.051 30.3273 109.268 30.6703 110.075 30.6703C110.79 30.6703 111.022 30.4053 111.1 29.6104C111.193 28.1453 111.69 25.7615 112.264 22.4108C112.264 22.3486 111.938 22.1612 111.519 22.1612L111.519 22.1621ZM106.675 29.2057C105.402 29.2057 104.672 28.3953 104.672 26.9616C104.672 25.2787 105.65 23.5954 107.466 23.5954C108.941 23.5954 109.562 24.6862 109.562 25.8863C109.562 27.3981 108.538 29.2057 106.675 29.2057Z" fill="#909094"/>
<path d="M123.907 22.0366C122.479 22.0366 121.532 22.7689 120.865 23.8442C120.539 22.7068 119.56 22.0366 118.318 22.0366C117.232 22.0366 116.285 22.5507 115.633 23.5325C115.664 22.4885 115.058 22.1768 114.437 22.1768C114.127 22.1768 113.909 22.2549 113.894 22.2857L112.59 29.6877C112.466 30.4513 112.885 30.6695 113.444 30.6695H113.676C114.204 30.6695 114.53 30.4513 114.655 29.6877L115.462 25.0906C116.052 24.1714 116.611 23.7816 117.48 23.7816C118.349 23.7816 118.862 24.4205 118.862 25.3869C118.862 25.5425 118.846 25.714 118.815 25.9009L118.163 29.6877C118.039 30.4513 118.474 30.6695 119.017 30.6695H119.235C119.763 30.6695 120.104 30.4359 120.228 29.6877L121.035 25.0906C121.625 24.1714 122.184 23.7816 123.054 23.7816C123.876 23.7816 124.482 24.2803 124.482 25.3088C124.482 25.5584 124.435 25.8696 124.373 26.244L123.768 29.6723C123.643 30.4359 124.063 30.6541 124.621 30.6541H124.854C125.459 30.6541 125.708 30.4046 125.832 29.6723L126.5 25.8855C126.578 25.4649 126.608 25.0906 126.608 24.748C126.624 23.0806 125.506 22.0366 123.907 22.0366Z" fill="#909094"/>
<path d="M77.0392 25.7459C77.0392 24.5925 76.8064 23.8289 76.2943 23.1592C75.7352 22.4423 74.6951 22.0059 73.4842 22.0059C69.8204 22.0059 68.501 24.7173 68.501 27.0703C68.501 29.4233 70.1155 30.8103 72.5992 30.8103C75.0829 30.8103 76.48 29.7037 76.48 28.8157C76.48 28.2236 76.061 28.0208 75.5797 27.9741C74.9274 28.8157 74.0271 29.2209 72.8008 29.2209C71.7142 29.2209 70.4256 28.8003 70.3325 26.852H75.9679C76.5732 26.8675 77.0392 26.5249 77.0392 25.7454V25.7459ZM75.223 25.4809H70.5191C70.9693 24.2808 72.0094 23.5331 73.3292 23.5331C73.9968 23.5331 74.5089 23.72 74.8506 24.0939C75.1458 24.4369 75.2542 24.9042 75.223 25.4809Z" fill="#909094"/>
<path d="M94.5353 24.6086H91.1819C90.7783 24.6086 90.5921 24.702 90.4678 24.8268C90.2662 25.045 90.1572 25.5437 90.1572 25.7619C90.1726 26.1049 90.4678 26.3073 91.0111 26.3073H93.3863C93.0604 27.9747 92.0045 29.1281 90.1884 29.1281C88.2792 29.1281 87.0059 27.9125 86.9286 25.84C86.8355 23.2374 88.5585 21.0868 90.9961 21.0868C92.4245 21.0868 93.5422 21.8504 93.9924 22.8631C94.0548 22.9411 95.3742 22.9411 95.3276 21.8032C95.3122 21.398 95.0795 20.9148 94.6446 20.5097C93.9459 19.8082 92.6265 19.2007 90.8723 19.2007C88.4193 19.2007 86.4789 20.5564 85.4701 22.5201C85.4701 22.5047 85.4547 22.5047 85.4547 22.5047C85.2531 22.2397 84.9268 22.1149 84.6009 22.1149C84.0576 22.1149 83.7005 22.2864 83.1726 23.2215L80.5646 27.8186L79.5864 23.237C79.4002 22.3799 79.0897 22.1149 78.5464 22.1149C77.91 22.1149 77.3974 22.5823 77.4132 22.6916L79.2759 30.0936L77.3509 33.2728C77.1493 33.6158 77.1335 34.0677 77.863 34.0677H78.2666C79.0273 34.0677 79.2755 33.6004 79.6484 32.9611L84.8956 24.0473C84.7405 24.6707 84.6628 25.3409 84.694 26.0264C84.7871 29.0183 86.8052 30.8259 89.755 30.8259C91.1521 30.8259 92.2699 30.2959 92.8909 29.4856C92.8444 30.3581 93.3099 30.7011 93.9309 30.7011C94.2727 30.7011 94.5208 30.5922 94.5208 30.5296L95.3746 25.7302C95.5143 24.982 95.235 24.6081 94.5362 24.6081L94.5353 24.6086Z" fill="#909094"/>
<path d="M29.2201 34.7801C34.0276 29.9542 34.0276 22.1298 29.2201 17.3039C24.4125 12.478 16.6179 12.478 11.8103 17.3039C7.00277 22.1298 7.00277 29.9542 11.8103 34.7801C16.6179 39.606 24.4125 39.606 29.2201 34.7801Z" fill="white"/>
<path d="M32.8261 26.0421C32.8261 32.8678 27.3149 38.3996 20.5156 38.3996C13.7162 38.3996 8.20459 32.8678 8.20459 26.0421C8.20459 24.1564 8.62359 22.3801 9.36893 20.7903C8.87219 22.0525 8.63941 23.3148 8.63941 24.4835C8.63941 30.0779 13.1413 30.8882 15.051 30.8728C17.9695 30.8415 21.3694 29.4078 24.2414 26.7589C24.2414 26.7589 23.8689 28.847 23.76 29.4863C23.6515 30.1097 24.0547 30.655 24.6757 30.655H24.9243C25.5607 30.655 26.0263 30.1251 26.1352 29.4863L27.1753 23.6582C27.2996 23.004 26.8801 22.4894 26.2283 22.4894H20.4225C19.7702 22.4894 19.1804 22.8325 19.0719 23.4867C19.0719 23.518 19.0253 23.705 19.0253 23.7517C18.9322 24.3751 19.3671 24.8424 19.9876 24.8424H23.0151C22.9686 24.8892 22.922 24.9359 22.8754 24.9826C20.7795 26.9618 18.1869 28.0525 16.0449 28.0525C13.9029 28.0525 11.5272 26.6968 11.5272 23.6578C11.5268 17.3465 17.4257 13.6846 20.5151 13.6846C27.2991 13.6846 32.8257 19.2168 32.8257 26.0421H32.8261Z" fill="#909094"/>
</svg>
