<svg width="130" height="53" viewBox="0 0 130 53" fill="none" xmlns="http://www.w3.org/2000/svg">
<path d="M44.37 31.9892C43.1041 31.9892 41.9226 31.7068 40.8536 31.1421C39.8128 30.5773 38.9689 29.7866 38.3219 28.7418C37.703 27.697 37.3936 26.5393 37.3936 25.2686C37.3936 23.9979 37.703 22.8401 38.3219 21.8235C38.9407 20.807 39.7847 20.0163 40.8536 19.4233C41.9226 18.8586 43.0759 18.5762 44.37 18.5762C45.664 18.5762 46.8173 18.8586 47.8582 19.4233C48.9271 19.9881 49.771 20.7787 50.3618 21.8235C50.9807 22.8401 51.2901 23.9979 51.2901 25.2686C51.2901 26.5393 50.9807 27.697 50.3618 28.7418C49.7429 29.7584 48.899 30.5491 47.8582 31.1421C46.8173 31.7068 45.6358 31.9892 44.37 31.9892ZM44.37 29.0807C45.4389 29.0807 46.311 28.7418 46.958 28.0359C47.605 27.3299 47.9425 26.4263 47.9425 25.2686C47.9425 24.1108 47.605 23.179 46.958 22.5013C46.311 21.7953 45.4671 21.4564 44.37 21.4564C43.2729 21.4564 42.4008 21.7953 41.7538 22.473C41.1068 23.1507 40.7974 24.0826 40.7974 25.2403C40.7974 26.3981 41.1068 27.3299 41.7538 28.0077C42.4008 28.7418 43.2729 29.0807 44.37 29.0807Z" fill="#909094"/>
<path d="M56.4094 22.9249C56.7189 22.4449 57.169 22.0495 57.7316 21.7389C58.2942 21.4283 58.9693 21.2871 59.7289 21.2871C60.629 21.2871 61.4167 21.513 62.1481 21.9366C62.8795 22.3602 63.4421 22.9814 63.8359 23.8003C64.2579 24.6192 64.4829 25.551 64.4829 26.6241C64.4829 27.6971 64.2579 28.629 63.8359 29.4479C63.414 30.2668 62.8514 30.888 62.1481 31.3398C61.4167 31.7634 60.629 31.9893 59.7289 31.9893C58.9975 31.9893 58.3223 31.8481 57.7316 31.5375C57.169 31.2269 56.7189 30.8598 56.4094 30.3797V34.9261H53.1182V21.4283H56.4094V22.9249ZM61.1073 26.6241C61.1073 25.8334 60.8822 25.2122 60.404 24.7604C59.9539 24.3086 59.3913 24.0827 58.7162 24.0827C58.041 24.0827 57.5065 24.3086 57.0283 24.7604C56.5782 25.2122 56.3532 25.8617 56.3532 26.6523C56.3532 27.443 56.5782 28.0642 57.0283 28.5443C57.4784 28.9961 58.041 29.222 58.7162 29.222C59.3913 29.222 59.9258 28.9961 60.404 28.5443C60.8822 28.0642 61.1073 27.443 61.1073 26.6241Z" fill="#909094"/>
<path d="M76.3265 26.4831C76.3265 26.7937 76.2983 27.1043 76.2702 27.4149H68.8156C68.8719 28.0644 69.0688 28.5727 69.4626 28.9115C69.8564 29.2504 70.3065 29.4198 70.8691 29.4198C71.6849 29.4198 72.2757 29.081 72.5851 28.4032H76.1014C75.9326 29.081 75.5951 29.7022 75.1169 30.2387C74.6668 30.7752 74.076 31.227 73.3728 31.5377C72.6695 31.8483 71.8818 32.0177 71.0098 32.0177C69.9689 32.0177 69.0125 31.7918 68.1967 31.3682C67.3809 30.9447 66.7339 30.3234 66.2838 29.5045C65.8337 28.6856 65.5806 27.7538 65.5806 26.6807C65.5806 25.6077 65.8056 24.6476 66.2557 23.8569C66.7058 23.038 67.3528 22.4168 68.1686 21.9932C68.9844 21.5697 69.9408 21.3438 71.0098 21.3438C72.0787 21.3438 72.9789 21.5414 73.7947 21.965C74.6105 22.3886 75.2294 22.9816 75.6795 23.7722C76.1014 24.5346 76.3265 25.4383 76.3265 26.4831ZM72.9508 25.6359C72.9508 25.0994 72.7539 24.6476 72.3601 24.337C71.9662 24.0264 71.488 23.8569 70.9254 23.8569C70.3628 23.8569 69.9127 24.0264 69.5189 24.337C69.1532 24.6476 68.9281 25.0994 68.8156 25.6642H72.9508V25.6359Z" fill="#909094"/>
<path d="M84.6248 21.3438C85.8906 21.3438 86.8752 21.7391 87.6347 22.5297C88.3943 23.3204 88.76 24.3935 88.76 25.7771V31.8483H85.4968V26.2007C85.4968 25.4947 85.2999 24.9582 84.9342 24.5911C84.5685 24.1958 84.0621 24.0264 83.4433 24.0264C82.8244 24.0264 82.318 24.224 81.9523 24.5911C81.5866 24.9864 81.3897 25.523 81.3897 26.2007V31.8483H78.0703V21.4285H81.3616V22.8121C81.6992 22.3603 82.1493 21.9932 82.7119 21.7391C83.2745 21.4849 83.9215 21.3438 84.6248 21.3438Z" fill="#909094"/>
<path d="M95.9336 31.9892C94.949 31.9892 94.0488 31.8198 93.2612 31.5092C92.4735 31.1985 91.8546 30.7467 91.3764 30.1255C90.9263 29.5043 90.6732 28.7701 90.645 27.9229H94.1614C94.2176 28.403 94.3864 28.7701 94.6958 29.0525C94.9771 29.3066 95.371 29.4196 95.8492 29.4196C96.3274 29.4196 96.7212 29.3066 97.0025 29.1089C97.2838 28.883 97.4245 28.5724 97.4245 28.2053C97.4245 27.8947 97.312 27.6123 97.0869 27.4147C96.8619 27.217 96.5806 27.0193 96.2711 26.9064C95.9617 26.7652 95.4835 26.624 94.8927 26.4263C94.0207 26.1722 93.3174 25.918 92.7548 25.6357C92.1922 25.3815 91.714 24.9862 91.3202 24.4779C90.9263 23.9696 90.7294 23.2919 90.7294 22.473C90.7294 21.2588 91.1795 20.2987 92.1078 19.621C93.008 18.915 94.2176 18.5762 95.6804 18.5762C97.1432 18.5762 98.3809 18.915 99.2811 19.621C100.181 20.2987 100.688 21.2588 100.744 22.5013H97.1713C97.1432 22.0777 96.9744 21.7388 96.6931 21.5129C96.4118 21.2588 96.018 21.1458 95.5679 21.1458C95.1741 21.1458 94.8365 21.2588 94.6114 21.4564C94.3583 21.6541 94.2457 21.9365 94.2457 22.3318C94.2457 22.7554 94.4427 23.0942 94.8646 23.3202C95.2866 23.5461 95.9054 23.8002 96.7775 24.0826C97.6495 24.365 98.3528 24.6473 98.8873 24.9015C99.4499 25.1556 99.9281 25.551 100.322 26.031C100.716 26.5393 100.913 27.1605 100.913 27.9512C100.913 28.6854 100.716 29.3631 100.322 29.9843C99.9281 30.6055 99.3655 31.0856 98.6341 31.4527C97.8465 31.8198 96.9744 31.9892 95.9336 31.9892Z" fill="#909094"/>
<path d="M113.037 26.4831C113.037 26.7937 113.009 27.1043 112.981 27.4149H105.526C105.582 28.0644 105.779 28.5727 106.173 28.9115C106.567 29.2504 107.017 29.4198 107.58 29.4198C108.395 29.4198 108.986 29.081 109.296 28.4032H112.812C112.643 29.081 112.306 29.7022 111.827 30.2387C111.377 30.7752 110.786 31.227 110.083 31.5377C109.38 31.8483 108.592 32.0177 107.72 32.0177C106.679 32.0177 105.723 31.7918 104.907 31.3682C104.091 30.9447 103.444 30.3234 102.994 29.5045C102.544 28.6856 102.291 27.7538 102.291 26.6807C102.291 25.6077 102.516 24.6476 102.966 23.8569C103.416 23.038 104.063 22.4168 104.879 21.9932C105.695 21.5697 106.651 21.3438 107.72 21.3438C108.789 21.3438 109.689 21.5414 110.505 21.965C111.321 22.3886 111.94 22.9816 112.39 23.7722C112.812 24.5346 113.037 25.4383 113.037 26.4831ZM109.661 25.6359C109.661 25.0994 109.464 24.6476 109.071 24.337C108.677 24.0264 108.198 23.8569 107.636 23.8569C107.073 23.8569 106.623 24.0264 106.229 24.337C105.864 24.6476 105.639 25.0994 105.526 25.6642H109.661V25.6359Z" fill="#909094"/>
<path d="M114.134 26.6241C114.134 25.551 114.331 24.6192 114.753 23.8003C115.175 22.9814 115.737 22.3602 116.469 21.9366C117.2 21.513 117.988 21.2871 118.888 21.2871C119.647 21.2871 120.294 21.4283 120.885 21.7389C121.476 22.0495 121.898 22.4166 122.207 22.9249V21.4565H125.499V31.8763H122.207V30.408C121.898 30.888 121.448 31.2833 120.857 31.594C120.294 31.9046 119.619 32.0458 118.86 32.0458C117.988 32.0458 117.2 31.8199 116.469 31.3963C115.737 30.9445 115.175 30.3233 114.753 29.5044C114.331 28.6572 114.134 27.6971 114.134 26.6241ZM122.179 26.6523C122.179 25.8617 121.954 25.2404 121.476 24.7604C121.026 24.3086 120.463 24.0827 119.816 24.0827C119.169 24.0827 118.607 24.3086 118.128 24.7604C117.678 25.2122 117.453 25.8334 117.453 26.6241C117.453 27.4147 117.678 28.0642 118.128 28.516C118.578 28.9678 119.141 29.1937 119.816 29.1937C120.491 29.1937 121.026 28.9678 121.476 28.516C121.954 28.0925 122.179 27.443 122.179 26.6523Z" fill="#909094"/>
<path d="M31.3733 26.765C31.3733 34.5587 25.0721 40.884 17.308 40.884C9.54394 40.884 3.24268 34.5587 3.24268 26.765C3.24268 18.9713 9.54394 12.646 17.308 12.646C25.0721 12.646 31.3733 18.9713 31.3733 26.765Z" fill="#909094"/>
<path d="M10.1911 27.2451L10.2474 27.1604L13.9043 21.4281C13.9606 21.3433 14.0731 21.3433 14.1294 21.4563C14.7483 22.84 15.2546 24.5342 15.0296 25.6073C14.9171 26.0591 14.6357 26.6521 14.2982 27.1886C14.27 27.2733 14.2138 27.358 14.1575 27.4145C14.1294 27.4427 14.1013 27.471 14.045 27.471H10.2755C10.1911 27.4427 10.1348 27.3298 10.1911 27.2451Z" fill="white"/>
<path d="M26.4792 28.3184V29.222C26.4792 29.2785 26.451 29.3068 26.3948 29.335C26.1135 29.4479 25.1289 29.8997 24.7351 30.4645C23.6942 31.9046 22.9066 33.966 21.1625 33.966H13.8204C11.2324 33.966 9.12256 31.8482 9.12256 29.222V29.1373C9.12256 29.0808 9.17882 29.0244 9.23508 29.0244H13.3703C13.4547 29.0244 13.5109 29.1091 13.5109 29.1656C13.4828 29.4197 13.5391 29.7021 13.6516 29.9562C13.9048 30.4645 14.4111 30.7469 14.9456 30.7469H16.971V29.1656H14.9737C14.8612 29.1656 14.8049 29.0526 14.8612 28.9679C14.8893 28.9397 14.9175 28.9114 14.9456 28.8549C15.1425 28.5726 15.3957 28.1772 15.677 27.6972C15.8739 27.3866 16.0427 27.0195 16.1834 26.6806C16.2115 26.6241 16.2396 26.5677 16.2677 26.483C16.2959 26.37 16.3521 26.2571 16.3803 26.1723C16.4084 26.0876 16.4365 26.0029 16.4647 25.9182C16.5209 25.6358 16.5491 25.3252 16.5491 24.9863C16.5491 24.8734 16.5491 24.7322 16.5209 24.591C16.5209 24.4498 16.4928 24.3086 16.4928 24.1674C16.4928 24.0545 16.4647 23.9133 16.4365 23.8003C16.4084 23.6027 16.3803 23.4333 16.324 23.2356L16.2959 23.1791C16.2677 23.0662 16.2396 22.925 16.1834 22.812C16.0708 22.4167 15.9302 22.0214 15.7895 21.6825C15.7333 21.5413 15.677 21.4001 15.6207 21.2589C15.5363 21.0613 15.452 20.8636 15.3676 20.6942C15.3394 20.6095 15.2832 20.553 15.255 20.4683C15.2269 20.3836 15.1706 20.2988 15.1425 20.2141L15.0581 20.0447L14.8049 19.5929C14.7768 19.5364 14.8331 19.4517 14.8893 19.4799L16.4365 19.9035L16.6334 19.96L16.8585 20.0165L16.9429 20.0447V19.1128C16.9429 18.661 17.3086 18.2939 17.7305 18.2939C17.9556 18.2939 18.1525 18.3787 18.2931 18.5198C18.4338 18.661 18.5182 18.8587 18.5182 19.0846V20.44L18.687 20.4965C18.687 20.4965 18.7151 20.4965 18.7151 20.5247C18.7432 20.553 18.7995 20.6095 18.8839 20.6659C18.9402 20.7224 18.9964 20.7789 19.0808 20.8354C19.2215 20.9483 19.4184 21.1177 19.6153 21.2872C19.6716 21.3436 19.7278 21.3719 19.7559 21.4284C20.0091 21.6543 20.2904 21.9366 20.5717 22.2473C20.6561 22.332 20.7124 22.4167 20.7968 22.5014C20.8812 22.5861 20.9374 22.6991 21.0218 22.7838C21.1062 22.8967 21.2187 23.0379 21.3031 23.1509C21.3313 23.2074 21.3875 23.2638 21.4157 23.3485C21.5282 23.518 21.6126 23.6874 21.7251 23.8568C21.7532 23.9415 21.8095 24.0263 21.8376 24.111C21.9501 24.3369 22.0345 24.5628 22.0627 24.8169C22.0908 24.8734 22.0908 24.9299 22.0908 24.9581C22.1189 25.0146 22.1189 25.0993 22.1189 25.184C22.147 25.4382 22.1189 25.6641 22.0908 25.9182C22.0627 26.0311 22.0345 26.1159 22.0064 26.2288C21.9783 26.3135 21.9501 26.4265 21.8939 26.5394C21.8095 26.7371 21.697 26.9348 21.5844 27.1324C21.5563 27.1889 21.5 27.2736 21.4438 27.3583C21.3875 27.443 21.3313 27.4995 21.3031 27.5842C21.2469 27.669 21.1625 27.7537 21.1062 27.8384C21.05 27.9231 20.9937 28.0078 20.9093 28.0925C20.8249 28.2055 20.7124 28.3184 20.628 28.4314C20.5717 28.4879 20.5155 28.5726 20.4311 28.629C20.3748 28.6855 20.3186 28.7702 20.2342 28.8267C20.1498 28.9114 20.0654 28.9961 19.981 29.0526L19.8122 29.1938C19.7841 29.222 19.7559 29.222 19.7278 29.222H18.4901V30.8034H20.0373C20.3748 30.8034 20.7124 30.6904 20.9656 30.4645C21.05 30.3798 21.4438 30.0409 21.922 29.5327C21.9408 29.5138 21.9595 29.5044 21.9783 29.5044L26.2541 28.2619C26.4229 28.1772 26.4792 28.2337 26.4792 28.3184Z" fill="white"/>
</svg>
