<svg width="130" height="53" viewBox="0 0 130 53" fill="none" xmlns="http://www.w3.org/2000/svg">
<path d="M109.811 9.34081C109.822 9.34013 111.84 9.22317 114.8 9.62011C117.887 10.0182 120.699 11.1307 122.757 13.0771C124.696 15.1432 125.805 17.9664 126.201 21.0654C126.594 24.0207 126.442 26.038 126.439 26.0732C126.441 26.0963 126.556 28.1187 126.162 31.081C125.766 34.1801 124.657 37.0032 122.718 39.0693C120.66 41.016 117.847 42.1283 114.76 42.5264C111.792 42.8843 109.774 42.8048 109.771 42.8047C109.737 42.8066 107.725 42.9211 104.782 42.5264C101.695 42.1283 98.8825 41.016 96.8242 39.0693C94.8851 37.0032 93.7765 34.1801 93.3799 31.081C93.0251 28.1166 93.1017 26.0962 93.1025 26.0732C93.1012 26.038 93.0269 24.0188 93.4199 21.0654C93.8166 17.9664 94.9251 15.1432 96.8643 13.0771C98.9224 11.1307 101.734 10.0182 104.821 9.62011C107.781 9.26318 109.795 9.34022 109.811 9.34081ZM116.464 29.6523L114.998 33.1894H116.662L120.818 22.9365H119.115L117.295 27.7451L115.315 22.9365H113.612L116.464 29.6523ZM7.59473 19.6357C9.29796 19.6357 11.6345 20.0322 11.6348 22.6553V23.4902H8.66602V22.7353C8.666 22.1004 8.26942 21.6621 7.55762 21.6621C6.80609 21.6621 6.52854 22.0589 6.44922 22.457C6.40963 22.6143 6.40958 22.8531 6.44922 23.0918C6.76478 24.5229 11.3175 25.2773 11.833 27.7812C11.8727 28.0599 11.9916 28.7347 11.833 29.7676C11.5574 31.7559 9.85399 32.5106 7.59766 32.5107C5.34116 32.5107 3.24233 31.7165 3.24219 29.0137V28.0996H6.44922V29.2519C6.44922 29.8869 6.88526 30.3251 7.63672 30.3252C8.46728 30.3252 8.7052 29.9292 8.82422 29.5312C8.85892 29.3571 8.89381 29.0318 8.82227 28.7666L8.7832 28.6592C8.19032 27.1086 3.91545 26.4316 3.43945 23.9297C3.3205 23.2929 3.32015 22.8172 3.39941 22.2998C3.71468 20.3512 5.45735 19.6358 7.59473 19.6357ZM56.6113 28.9756C56.6113 29.1348 56.6117 29.2939 56.6514 29.4531C56.691 29.692 56.9289 30.248 57.7598 30.248L57.9111 30.2412C58.6258 30.1787 58.8719 29.6707 58.9092 29.374C58.9488 29.2547 58.9492 29.0556 58.9492 28.8984V20.0742H61.9971V28.6992C61.997 28.9381 61.957 29.3737 61.957 29.4932C61.7588 31.7184 59.9785 32.4726 57.7598 32.4726C55.5409 32.4726 53.7998 31.7563 53.6035 29.4932C53.6035 29.3737 53.5635 28.9361 53.5635 28.6992V20.0742H56.6113V28.9756ZM46.5938 19.7949C48.2574 19.7949 50.5938 20.1917 50.5938 22.7754V23.6094H47.625V22.8545C47.6249 22.2197 47.2282 21.7823 46.5166 21.7822C45.8047 21.7822 45.5266 22.1781 45.4473 22.5762C45.4076 22.7334 45.3681 22.9722 45.4473 23.2109C45.7626 24.6023 50.2364 25.3172 50.752 27.8213C50.7917 28.0604 50.9105 28.735 50.752 29.7676C50.4763 31.7541 48.7726 32.4707 46.5557 32.4707C44.339 32.4706 42.2414 31.6765 42.2412 29.0137V28.0996H45.4082V29.2519C45.4082 29.8869 45.8045 30.3252 46.5957 30.3252C47.3867 30.3252 47.6647 29.9292 47.7441 29.5312C47.7789 29.3222 47.8129 29.0228 47.7412 28.7646L47.7021 28.6592C47.1093 27.1086 42.9118 26.4332 42.4775 24.0088C42.319 23.4118 42.3582 22.9363 42.4375 22.4189C42.7528 20.4702 44.4958 19.7949 46.5938 19.7949ZM82.7422 19.7139C84.8816 19.7139 86.7411 20.4285 86.9375 22.6934C86.9764 23.0447 86.9775 23.4709 86.9775 23.4873V23.8857H83.9697V23.2109C83.9697 23.203 83.9688 22.9295 83.9297 22.7334C83.89 22.4547 83.6521 21.8595 82.7422 21.8594C81.832 21.8594 81.633 22.4547 81.5537 22.7334C81.5141 22.8926 81.5146 23.092 81.5146 23.291V28.7744C81.5146 28.9336 81.5141 29.0935 81.5537 29.2129C81.5539 29.6109 81.872 30.126 82.7422 30.126C83.6125 30.1259 83.8904 29.5684 83.9697 29.2519C84.0092 29.1325 84.0088 28.9338 84.0088 28.8144V27.0664H82.7812V25.3174H87.0176V28.5361C87.0176 28.7747 87.0172 28.9342 86.9775 29.3301C86.7792 31.5154 84.8796 32.3095 82.7422 32.3096C80.6047 32.3096 78.7423 31.5155 78.5439 29.3301C78.5043 28.9322 78.5049 28.7727 78.5049 28.5361V23.4873C78.5049 23.2881 78.5439 22.8922 78.5439 22.6934C78.8216 20.4283 80.6027 19.7139 82.7422 19.7139ZM23.5938 32.0752H20.3857L18.7637 21.1455H18.7236L17.0596 32.0752H13.8535L16.0703 20.0723H21.377L23.5938 32.0752ZM32.6191 29.2519H32.6592L34.1641 20.0723H39.0322L39.3096 32.0752H36.3018L36.2227 21.2646H36.1436L34.1641 32.0752H31.1143L29.1357 21.2646H29.0566L28.9766 32.0752H25.9688L26.2441 20.0723H31.1543L32.6191 29.2519ZM72.5283 29.4912H72.5684L72.4092 20.0723H75.3779V31.9551H71.1025L68.1738 22.1777H68.0947L68.2529 31.9551H65.3223V20.0723H69.7559L72.5283 29.4912ZM111.435 23.8076C111.157 23.5312 110.842 23.2919 110.445 23.1328C110.089 22.9738 109.654 22.8946 109.179 22.8945C108.703 22.8945 108.308 22.9737 107.872 23.1328C107.476 23.2899 107.079 23.4895 106.764 23.8076C106.448 24.126 106.17 24.4832 105.972 24.9209C105.774 25.3586 105.694 25.8746 105.694 26.4316C105.694 26.9888 105.814 27.5066 106.012 27.9424C106.21 28.378 106.486 28.7363 106.803 29.0547C107.12 29.3313 107.515 29.5702 107.911 29.7295C108.347 29.8887 108.742 29.9687 109.179 29.9687C109.654 29.9687 110.049 29.8887 110.445 29.7295C110.842 29.5325 111.197 29.2938 111.435 28.9756V29.9687H113.059V22.8945H111.435V23.8076ZM99.2773 29.9668H100.901V27.4629H102.248C102.724 27.4629 103.159 27.3829 103.516 27.2236C103.872 27.0664 104.229 26.8254 104.505 26.5488C104.78 26.2722 105.018 25.9535 105.177 25.5557C105.335 25.1577 105.415 24.761 105.415 24.3232C105.415 23.8857 105.335 23.4896 105.177 23.0918C105.02 22.694 104.782 22.3751 104.505 22.0986C104.227 21.8222 103.912 21.583 103.516 21.4238C103.119 21.2646 102.724 21.1846 102.248 21.1846H99.2773V29.9668ZM109.456 24.4053C109.732 24.4053 110.01 24.4453 110.287 24.6045C110.562 24.7238 110.761 24.8432 110.959 25.042C111.157 25.1991 111.277 25.4381 111.396 25.6767C111.514 25.9135 111.554 26.1951 111.554 26.4717C111.554 26.7481 111.514 27.0269 111.396 27.2656C111.277 27.5024 111.155 27.7014 110.959 27.9004C110.763 28.0994 110.525 28.2195 110.287 28.3389C110.109 28.4284 109.909 28.4724 109.687 28.4892L109.456 28.5C109.141 28.5 108.863 28.4204 108.625 28.3408C108.389 28.2214 108.151 28.1013 107.953 27.9023C107.795 27.7033 107.636 27.4643 107.517 27.2256C107.398 26.9869 107.358 26.7081 107.358 26.4316C107.358 26.1553 107.398 25.8763 107.517 25.6377C107.596 25.401 107.757 25.2009 107.953 25.0019C108.149 24.8032 108.348 24.6837 108.625 24.5644C108.901 24.4451 109.18 24.4053 109.456 24.4053ZM102.131 22.6533C102.367 22.6533 102.605 22.6938 102.804 22.7734C103.002 22.853 103.161 22.9718 103.319 23.1309C103.438 23.2899 103.556 23.4498 103.636 23.6484C103.715 23.8454 103.755 24.0475 103.755 24.2842C103.755 24.5207 103.715 24.7201 103.636 24.9189C103.557 25.1177 103.478 25.2775 103.319 25.4365C103.161 25.5957 103 25.7153 102.804 25.7949C102.607 25.8745 102.369 25.9141 102.131 25.9141H100.864V22.6533H102.131ZM99.2402 21.1846H99.2773V21.1826H99.2383L99.2402 21.1846Z" fill="#909094"/>
</svg>
