<svg width="130" height="53" viewBox="0 0 130 53" fill="none" xmlns="http://www.w3.org/2000/svg">
<path fill-rule="evenodd" clip-rule="evenodd" d="M62.6714 20.1683C63.8607 18.6888 65.7107 17.4644 67.9063 17.4644C72.8566 17.4644 76.7497 21.5764 76.7497 26.6477C76.7497 31.9332 72.8363 35.8412 68.1401 35.8412C65.6395 35.8412 63.7285 34.5555 63.0271 33.4841H62.956V41.2491C62.956 41.2491 62.9357 41.3409 62.9052 41.3715C62.8747 41.4022 62.8238 41.4226 62.7832 41.4226H58.3818C58.3818 41.4226 58.2903 41.4022 58.2598 41.3715C58.2293 41.3409 58.209 41.2899 58.209 41.2491V17.648C58.209 17.648 58.2293 17.5562 58.2598 17.5256C58.2903 17.495 58.3411 17.4746 58.3818 17.4746H62.4986C62.4986 17.4746 62.5901 17.495 62.6205 17.5256C62.651 17.5562 62.6714 17.6072 62.6714 17.648V20.1785V20.1683ZM67.5302 31.3413C67.1643 31.3515 66.7983 31.3209 66.4324 31.2495C65.5277 31.0556 64.6942 30.6067 64.0436 29.9332C63.3931 29.27 62.956 28.4231 62.7934 27.5048C62.7425 27.2395 62.7222 26.9742 62.712 26.7089C62.712 26.413 62.7324 26.1171 62.7832 25.8212C62.9458 24.9028 63.3829 24.0559 64.0335 23.3927C64.684 22.7294 65.5074 22.2703 66.4222 22.0764C66.7882 21.9948 67.1541 21.9642 67.52 21.9744C68.1198 21.9744 68.7093 22.107 69.2582 22.3417C69.8173 22.5764 70.3154 22.9233 70.7423 23.3621C71.1692 23.8008 71.4945 24.311 71.7181 24.8722C71.9418 25.4334 72.0536 26.0354 72.0434 26.6477C72.0434 27.2599 71.9418 27.8619 71.7181 28.4231C71.4945 28.9843 71.159 29.5047 70.7423 29.9434C70.3154 30.3822 69.8173 30.7291 69.2582 30.9638C68.7093 31.1985 68.1198 31.3311 67.5302 31.3413Z" fill="#909094"/>
<path d="M34.0879 21.0049C33.0714 18.8621 31.1401 17.4847 28.233 17.4847C27.3385 17.5051 26.4643 17.7193 25.6714 18.1275C24.8785 18.5356 24.1873 19.1274 23.6588 19.8417L23.5571 19.9743V11.5767C23.5571 11.5767 23.5368 11.4849 23.5063 11.4441C23.4758 11.4135 23.425 11.3931 23.3741 11.3931H19.2675C19.2675 11.3931 19.176 11.4135 19.1456 11.4441C19.1151 11.4747 19.0947 11.5257 19.0947 11.5767V35.6574C19.0947 35.6574 19.1151 35.7492 19.1456 35.7798C19.176 35.8104 19.2269 35.8308 19.2675 35.8308H23.6689C23.6689 35.8308 23.7604 35.8104 23.8011 35.7798C23.8316 35.7492 23.8519 35.6982 23.8519 35.6574V25.3925C23.8519 23.3926 25.1733 21.9845 27.2978 21.9845C29.6154 21.9845 30.2049 23.9028 30.2049 25.8517V35.6574C30.2049 35.6574 30.2253 35.7492 30.2558 35.7798C30.2863 35.8104 30.3371 35.8308 30.3778 35.8308H34.769C34.769 35.8308 34.8605 35.8104 34.9011 35.7798C34.9316 35.7492 34.952 35.6982 34.952 35.6574V25.2598C34.952 24.9027 34.952 24.5558 34.9011 24.2191C34.83 23.1069 34.5454 22.0151 34.0879 21.0049Z" fill="#909094"/>
<path d="M12.1219 24.5765C12.1219 24.5765 9.88564 24.0459 9.06228 23.8317C8.23892 23.6174 6.79551 23.1684 6.79551 22.0766C6.79551 20.9848 7.95431 20.6379 9.13343 20.6379C10.3126 20.6379 11.6238 20.9236 11.7255 22.2399C11.7255 22.2909 11.756 22.3317 11.7865 22.3623C11.817 22.393 11.8678 22.4134 11.9186 22.4134L16.259 22.393C16.259 22.393 16.3098 22.393 16.3302 22.3725C16.3505 22.3623 16.3708 22.3521 16.3912 22.3317C16.4115 22.3113 16.4217 22.2909 16.4318 22.2705C16.4318 22.2501 16.442 22.2195 16.4318 22.1991C16.1675 17.9952 12.4878 16.4952 9.10294 16.4952C5.08781 16.4748 2.15016 19.138 2.15016 22.0766C2.15016 24.2194 2.74988 26.2295 7.49689 27.6274C8.33041 27.8723 9.45871 28.1886 10.4447 28.4641C11.634 28.8009 12.2744 29.3008 12.2744 30.0865C12.2744 31.0048 10.9529 31.6477 9.65184 31.6477C7.77134 31.6477 6.42957 30.9436 6.31776 29.6886C6.31776 29.6376 6.28726 29.5967 6.25677 29.5661C6.22628 29.5355 6.17545 29.5151 6.13479 29.5151L1.80455 29.5355C1.80455 29.5355 1.75373 29.5355 1.7334 29.5457C1.71307 29.5457 1.69274 29.5661 1.67241 29.5865C1.65208 29.6069 1.64191 29.6274 1.63175 29.6478C1.63175 29.6682 1.62158 29.6988 1.62158 29.7192C1.82488 33.6884 5.63671 35.821 9.19442 35.821C14.4903 35.821 16.8892 32.8313 16.8892 30.0253C16.8892 28.709 16.5945 25.7091 12.1422 24.5663L12.1219 24.5765Z" fill="#909094"/>
<path d="M45.1781 16.4336C41.0714 16.4336 39.0283 17.8315 37.3816 18.9539L37.3308 18.9845C37.2495 19.0457 37.1885 19.1274 37.1681 19.2294C37.1478 19.3314 37.1681 19.4335 37.2088 19.5253L38.8352 22.3313C38.8657 22.3823 38.9063 22.4334 38.9572 22.464C39.008 22.4946 39.069 22.5252 39.1198 22.5354C39.1808 22.5456 39.2418 22.5354 39.2926 22.5354C39.3536 22.515 39.4044 22.4946 39.4451 22.4538L39.5772 22.3517C40.4209 21.6375 41.7728 20.6885 45.0561 20.4334C46.8858 20.2906 48.4613 20.7702 49.6201 21.8517C50.9009 23.0354 51.6633 24.9435 51.6633 26.9638C51.6633 30.6779 49.488 33.0146 45.9811 33.0554C43.0943 33.035 41.1528 31.5248 41.1528 29.3004C41.1528 28.1168 41.6813 27.3413 42.7283 26.576C42.8096 26.5148 42.8605 26.4332 42.891 26.3414C42.9113 26.2495 42.891 26.1475 42.8503 26.0557L41.3967 23.2905C41.3967 23.2905 41.3357 23.1986 41.2849 23.1578C41.2443 23.1272 41.1934 23.0966 41.1324 23.0762C41.0816 23.0558 41.0206 23.0558 40.9596 23.066C40.8986 23.066 40.8478 23.0966 40.797 23.1272C39.1605 24.0965 37.1478 25.8822 37.2596 29.3106C37.3918 33.6676 41.0003 37.0042 45.6965 37.1368H46.2555C51.8361 36.9532 55.8614 32.8003 55.8614 27.1576C55.8614 21.9844 52.1004 16.4438 45.1577 16.4438L45.1781 16.4336Z" fill="#909094"/>
<path fill-rule="evenodd" clip-rule="evenodd" d="M85.8275 11.4546H123.397C125.989 11.4546 128.093 13.5667 128.093 16.1687V36.8107C128.093 39.4126 125.989 41.5248 123.397 41.5248H85.8275C83.2355 41.5248 81.1313 39.4126 81.1313 36.8107V16.1687C81.1313 13.5667 83.2355 11.4546 85.8275 11.4546ZM94.2542 27.8111C97.385 27.8111 99.6314 25.5152 99.6314 22.3011C99.6314 19.0869 97.385 16.7911 94.2542 16.7911H88.7245C88.6635 16.7911 88.5924 16.8217 88.5517 16.8625C88.5009 16.9136 88.4806 16.9748 88.4806 17.036V32.2803C88.4806 32.3415 88.5111 32.4129 88.5517 32.4537C88.6025 32.5048 88.6635 32.5252 88.7245 32.5252H90.8083C90.8693 32.5252 90.9405 32.4946 90.9811 32.4537C91.0319 32.4027 91.0523 32.3415 91.0523 32.2803V28.056C91.0523 27.9947 91.0828 27.9233 91.1234 27.8825C91.1743 27.8315 91.2352 27.8111 91.2962 27.8111H94.2542ZM94.0916 19.1073C95.7993 19.1073 97.0496 20.4542 97.0496 22.3011C97.0496 24.148 95.7891 25.4948 94.0916 25.4948H91.2962C91.2352 25.4948 91.1641 25.4642 91.1234 25.4234C91.0726 25.3724 91.0523 25.3112 91.0523 25.2499V19.3624C91.0523 19.3012 91.0828 19.2298 91.1234 19.189C91.1743 19.138 91.2352 19.1175 91.2962 19.1175H94.0916V19.1073ZM100.241 29.6069C100.221 29.1171 100.323 28.6274 100.536 28.1784C100.75 27.7294 101.075 27.3519 101.471 27.0662C102.284 26.454 103.535 26.1377 105.395 26.0662L107.367 25.9948V25.4132C107.367 24.25 106.584 23.75 105.334 23.75C104.084 23.75 103.291 24.199 103.098 24.9234C103.088 24.9744 103.047 25.0153 103.006 25.0561C102.966 25.0867 102.915 25.1071 102.854 25.0969H100.912C100.912 25.0969 100.841 25.0969 100.811 25.0765C100.78 25.0663 100.75 25.0357 100.729 25.0153C100.709 24.9847 100.689 24.954 100.678 24.9234C100.678 24.8928 100.668 24.852 100.678 24.8214C100.973 23.097 102.396 21.7807 105.436 21.7807C108.658 21.7807 109.827 23.2908 109.827 26.1683V32.2803C109.827 32.2803 109.827 32.3415 109.806 32.3721C109.796 32.4027 109.776 32.4333 109.756 32.4537C109.735 32.4741 109.705 32.4946 109.674 32.5048C109.644 32.515 109.613 32.5252 109.583 32.5252H107.621C107.621 32.5252 107.56 32.5252 107.53 32.5048C107.499 32.4946 107.469 32.4741 107.448 32.4537C107.428 32.4333 107.408 32.4027 107.397 32.3721C107.387 32.3415 107.377 32.3109 107.377 32.2803V31.8211C107.377 31.8211 107.377 31.7395 107.347 31.7089C107.326 31.6783 107.296 31.6476 107.255 31.6374C107.214 31.6272 107.174 31.617 107.143 31.6374C107.113 31.6579 107.072 31.6681 107.042 31.6987C106.452 32.3415 105.497 32.8109 103.982 32.8109C101.756 32.8109 100.272 31.6476 100.272 29.6273L100.241 29.6069ZM107.367 28.2804V27.8111L104.816 27.9437C103.474 28.0151 102.681 28.5763 102.681 29.5151C102.681 30.3722 103.403 30.8416 104.653 30.8416C106.361 30.8416 107.367 29.913 107.367 28.2804ZM111.778 35.372V37.1474C111.778 37.2086 111.789 37.2597 111.829 37.3107C111.86 37.3617 111.911 37.3923 111.961 37.4127C112.307 37.5046 112.663 37.5556 113.029 37.5454C114.93 37.5454 116.668 36.8515 117.664 34.1271L122.035 22.4133C122.035 22.4133 122.055 22.3317 122.035 22.3011C122.035 22.2603 122.015 22.2195 121.994 22.1888C121.974 22.1582 121.943 22.1276 121.903 22.1072C121.862 22.0868 121.832 22.0766 121.791 22.0766H119.758C119.707 22.0766 119.656 22.097 119.616 22.1276C119.575 22.1582 119.544 22.1991 119.524 22.2501L117.115 29.6681C117.115 29.6681 117.064 29.76 117.024 29.7906C116.983 29.8212 116.932 29.8314 116.881 29.8314C116.83 29.8314 116.78 29.811 116.739 29.7906C116.698 29.76 116.668 29.7192 116.647 29.6681L113.872 22.2297C113.872 22.2297 113.822 22.1378 113.781 22.1072C113.74 22.0766 113.689 22.0664 113.639 22.0664H111.646C111.646 22.0664 111.565 22.0766 111.535 22.097C111.504 22.1174 111.474 22.1378 111.443 22.1786C111.423 22.2093 111.402 22.2501 111.402 22.2909C111.402 22.3317 111.402 22.3725 111.413 22.4031L115.499 32.9435C115.519 32.9945 115.519 33.0558 115.499 33.117L115.367 33.5251C115.214 34.0353 114.899 34.4741 114.472 34.7802C114.045 35.0863 113.517 35.2393 112.998 35.2087C112.693 35.2087 112.388 35.1781 112.083 35.1271C112.043 35.1271 112.012 35.1271 111.972 35.1271C111.931 35.1271 111.9 35.1577 111.87 35.1781C111.839 35.1985 111.819 35.2291 111.799 35.2699C111.778 35.3006 111.778 35.3414 111.778 35.3822V35.372Z" fill="#909094"/>
</svg>
