<svg width="130" height="53" viewBox="0 0 130 53" fill="none" xmlns="http://www.w3.org/2000/svg">
<path d="M88.5411 15.3307L95.39 14.0993V40.492H88.5411V15.3307ZM98.5405 15.3307V40.492H105.393V14.0993L98.5405 15.3307ZM78.7848 40.492H85.6374V21.1893H78.7848V40.492ZM33.5062 23.9182C32.6387 23.8599 30.6352 23.7324 30.6352 21.918C30.6352 19.732 33.5207 19.732 34.6059 19.732C36.5114 19.732 38.9759 20.2967 40.7362 20.825C40.7362 20.825 41.7198 21.1711 42.5546 21.5282L42.6309 21.55V15.5639L42.5256 15.5311C40.4495 14.8024 38.0322 14.0993 33.5534 14.0993C25.826 14.0993 23.0894 18.6171 23.0894 22.4864C23.0894 24.7161 24.0403 29.9663 32.8855 30.5711C33.6368 30.6184 35.6258 30.7314 35.6258 32.6041C35.6258 34.1489 33.9962 35.0634 31.2558 35.0634C28.2542 35.0634 25.3397 34.2946 23.5685 33.5659V39.7342C26.218 40.4301 29.2015 40.7799 32.704 40.7799C40.2571 40.7799 43.6399 36.5062 43.6399 32.2725C43.6399 27.4705 39.8543 24.3518 33.5062 23.9219V23.9182ZM74.9266 20.9051C68.593 21.1092 65.3809 23.9619 65.3809 29.6311V40.492H72.2915V31.6349C72.2915 28.2393 72.7344 26.7856 76.7486 26.6471V21.0071C76.0735 20.8614 74.9302 20.9088 74.9302 20.9088L74.9266 20.9051ZM56.3397 21.1675C56.1872 21.5537 55.0911 24.6615 52.4379 27.8859V14.0993L45.3675 15.502V40.492H52.4379V32.768C54.485 35.8503 55.4976 40.492 55.4976 40.492H63.9654C63.1269 36.998 59.4647 30.5492 59.4647 30.5492C62.7531 26.3629 64.1977 21.9034 64.4263 21.1638H56.3397V21.1675ZM82.2147 19.3385C84.0803 19.3385 85.5939 17.8228 85.5939 15.9501C85.5939 14.0774 84.0803 12.5581 82.2147 12.5581C80.3492 12.5581 78.8393 14.0774 78.8393 15.9501C78.8393 17.8228 80.3528 19.3385 82.2147 19.3385Z" fill="#909094"/>
</svg>
