<svg width="130" height="53" viewBox="0 0 130 53" fill="none" xmlns="http://www.w3.org/2000/svg">
<path d="M23.4401 29.1499C23.4401 29.6402 23.0416 30.0403 22.5574 30.0403H16.3654C15.8769 30.0403 15.4827 29.6402 15.4827 29.1499V22.9343C15.4827 22.4439 15.8812 22.0482 16.3654 22.0482H22.5574C23.0416 22.0482 23.4401 22.4482 23.4401 22.9343V29.1499ZM28.745 33.8126C28.745 34.6643 28.0509 35.3611 27.1981 35.3611H11.7161C10.8677 35.3611 10.1692 34.6643 10.1692 33.8126V18.2758C10.1692 17.4242 10.8634 16.723 11.7161 16.723H27.1981C28.0509 16.723 28.745 17.4199 28.745 18.2758V33.8169V33.8126ZM29.1864 11.3936H9.72783C7.05394 11.3936 4.86426 13.5916 4.86426 16.2757V35.8085C4.86426 38.4926 7.05394 40.6906 9.72783 40.6906H29.1864C31.8603 40.6906 34.05 38.4926 34.05 35.8085V16.2757C34.05 13.5873 31.8603 11.3936 29.1864 11.3936Z" fill="#909094"/>
<path d="M47.5606 35.6617C45.8294 35.6617 44.1668 34.9907 42.9927 33.8164C41.9471 32.7669 41.3687 31.4076 41.3687 29.9838H43.1213C43.1213 30.9388 43.5155 31.8593 44.2311 32.5733C45.0753 33.4164 46.2922 33.9024 47.5606 33.9024H47.5735C50.0202 33.9024 52.0085 32.1862 52.0085 30.0742C52.0085 28.4912 51.1344 27.2352 46.8921 26.2459C45.1652 25.8459 43.9997 25.3082 43.2241 24.5554C42.3971 23.7511 41.9943 22.6843 41.9943 21.2863C41.9943 18.5334 44.4539 16.2881 47.4792 16.2881C48.9275 16.2881 50.2945 16.7871 51.3272 17.699C52.3942 18.6367 52.9812 19.9056 52.9812 21.2648H51.2286C51.2286 19.4884 49.5489 18.0474 47.4792 18.0474C45.4095 18.0474 43.7469 19.5314 43.7469 21.2863C43.7469 22.8908 44.2954 23.8328 47.2906 24.5296C50.4873 25.2695 53.7568 26.5083 53.7654 30.0656C53.7654 31.5797 53.1098 32.9948 51.9228 34.0487C50.7616 35.081 49.2189 35.6488 47.5777 35.6488H47.5606V35.6617Z" fill="#909094"/>
<path d="M62.9955 23.1967C59.8502 23.1967 57.5748 25.5539 57.5748 28.6897C57.5748 31.8254 59.8973 34.0837 62.9955 34.0837C66.0936 34.0837 68.2961 31.6276 68.2961 28.6639C68.2961 25.7002 65.9993 23.1967 62.9955 23.1967ZM68.2018 40.6692V32.9653H68.1504C67.0149 34.7117 65.0566 35.6107 62.9955 35.6107C59.0275 35.6107 55.8779 32.6212 55.8779 28.6122C55.8779 24.6033 59.1003 21.6611 62.9955 21.6611C65.0566 21.6611 67.0149 22.5601 68.1504 24.3323H68.2018V22.0009H69.8987V40.6649H68.2018V40.6692Z" fill="#909094"/>
<path d="M94.2083 23.1968C91.0631 23.1968 88.7877 25.554 88.7877 28.6898C88.7877 31.8255 91.1102 34.0838 94.2083 34.0838C97.3065 34.0838 99.509 31.6276 99.509 28.664C99.509 25.7003 97.2122 23.1968 94.2083 23.1968ZM99.4147 35.2968V32.9654H99.3633C98.202 34.7118 96.2652 35.6108 94.2083 35.6108C90.2404 35.6108 87.0908 32.6213 87.0908 28.6166C87.0908 24.612 90.3089 21.6655 94.2083 21.6655C96.2909 21.6655 98.2278 22.543 99.3633 24.341H99.4147V22.0096H101.107V35.3011H99.4147V35.2968Z" fill="#909094"/>
<path d="M106.185 27.5198V35.2968H104.488V22.0053H106.185V23.9238H106.232C106.961 22.2247 108.242 21.786 109.96 21.6655V23.4635C107.638 23.6571 106.185 25.1368 106.185 27.5198Z" fill="#909094"/>
<path d="M117.545 23.1927C114.905 23.1927 112.801 25.137 112.386 27.7351H122.721C122.284 25.1327 120.206 23.1927 117.54 23.1927M124.435 29.2664H112.381C112.501 31.8902 114.927 34.0754 117.515 34.0754C119.546 34.0754 121.534 32.9097 122.258 30.9396H124.045C123.081 33.7097 120.467 35.6024 117.536 35.6024C113.714 35.6024 110.637 32.4709 110.637 28.6513C110.637 24.8316 113.71 21.6528 117.51 21.6528C121.311 21.6528 124.461 24.9348 124.461 28.776C124.461 28.9438 124.431 29.09 124.431 29.2621" fill="#909094"/>
<path d="M83.0458 35.3136V33.236H82.9987C82.2188 34.8748 80.4919 35.6319 78.7436 35.6319C76.9953 35.6319 75.2641 35.0211 74.1714 33.6317C73.2244 32.4359 73.0059 30.8229 73.0059 29.3346V21.9619H74.707V29.3088C74.707 32.066 75.7055 34.0963 78.7436 34.0963C79.862 34.0963 80.7362 33.7995 81.5632 33.0209C82.733 31.8982 82.9473 30.5777 82.9473 29.0206V21.9662H84.6527V35.3222H83.0458V35.3136Z" fill="#909094"/>
</svg>
