<svg width="130" height="53" viewBox="0 0 130 53" fill="none" xmlns="http://www.w3.org/2000/svg">
<path d="M83.8271 12.7451C88.9258 12.7451 93.7335 17.4907 93.7627 26.2002C93.7627 35.7207 89.0131 40.0459 83.7979 40.0459C81.234 40.0458 79.6895 38.9342 78.6406 38.1533L78.6123 46.6533L71.3281 48.2451V13.2256H77.7383L78.1162 15.0879C79.1359 14.1268 80.9719 12.7451 83.8271 12.7451ZM21.6816 12.7451C24.0998 12.7451 26.4891 13.136 28.9072 14.127V21.1846C26.693 19.9534 23.8958 19.2627 21.6816 19.2627C20.1377 19.2628 19.2051 19.7136 19.2051 20.8848C19.2056 24.2482 30.3058 22.6568 30.335 31.6064C30.3349 36.9824 26.1686 40.0762 20.1084 40.0762C17.6028 40.0761 14.8638 39.5655 12.1543 38.3643V31.2158C14.6016 32.5973 17.6902 33.6181 20.1084 33.6182C21.74 33.6182 22.9053 33.1677 22.9053 31.7861C22.9043 28.2128 11.8342 29.5337 11.834 21.2451C11.834 15.9293 15.7673 12.7452 21.6816 12.7451ZM38.8711 13.2559H44.4072V19.6533H38.8711V30.3154C38.8713 34.7599 43.4749 33.3787 44.4072 32.9883V39.085C43.4458 39.6255 41.6976 40.0761 39.3086 40.0762C34.9966 40.0762 31.7627 36.8023 31.7627 32.3574L31.791 8.30078L38.9004 6.73926L38.8711 13.2559ZM106.204 12.7451C113.109 12.7453 116.722 18.8126 116.722 26.501C116.722 27.2219 116.663 28.7834 116.663 29.1738H102.416C102.737 32.7176 105.242 33.7383 108.068 33.7383C110.953 33.7383 113.226 33.108 115.207 32.0869V38.0938C113.226 39.235 110.603 40.0459 107.136 40.0459C100.027 40.0457 95.0742 35.4803 95.0742 26.4404C95.0743 18.8121 99.2699 12.7451 106.204 12.7451ZM53.4688 15.4785C55.1878 12.2352 58.597 12.8955 59.5293 13.2559V20.1641C58.6261 19.8337 55.7122 19.4131 53.9932 21.7256V39.5352H46.709V13.2559H53.0029L53.4688 15.4785ZM68.6191 39.5352H61.3057V13.2568H68.6191V39.5352ZM82.0791 19.4131C80.4187 19.4131 79.3698 20.0131 78.6123 20.8838L78.6406 32.0264C79.3399 32.8072 80.3601 33.4385 82.0791 33.4385C84.7595 33.4384 86.5654 30.4346 86.5654 26.4102C86.5654 22.4759 84.7303 19.4131 82.0791 19.4131ZM106.175 18.8418C104.339 18.8418 102.328 20.2537 102.328 23.6475H109.846C109.846 20.254 107.952 18.8421 106.175 18.8418ZM68.6191 9.35156L61.3057 10.9736V4.84668L68.6191 3.25488V9.35156Z" fill="#909094"/>
</svg>
