<svg width="130" height="53" viewBox="0 0 130 53" fill="none" xmlns="http://www.w3.org/2000/svg">
<path d="M99.0436 1.64211L80.108 1.63721H80.1028C80.088 1.63721 80.0739 1.63966 80.0597 1.63966C77.4584 1.71907 74.2182 3.79863 73.6282 6.36292L64.6734 45.8566C64.0832 48.4448 65.6882 50.5508 68.2708 50.5894H88.1636C90.7062 50.464 93.1781 48.4083 93.7579 45.8732L102.713 6.37916C103.313 3.76491 101.669 1.64181 99.0433 1.64181" fill="#909094"/>
<path d="M64.6735 45.8568L73.6285 6.36312C74.2185 3.79884 77.4584 1.71927 80.0597 1.63986L72.5307 1.63527L58.966 1.63281C56.3573 1.68585 53.0753 3.78014 52.4856 6.36373L43.5281 45.8572C42.9357 48.4453 44.5435 50.5513 47.1242 50.5899H68.2711C65.6885 50.5513 64.0835 48.4453 64.6738 45.8572" fill="#909094"/>
<path d="M43.5281 45.8564L52.4856 6.36265C53.0756 3.77936 56.3577 1.68508 58.9661 1.63173L41.5891 1.62744C38.9659 1.62744 35.6026 3.74564 35.0031 6.36265L26.0456 45.8564C25.9912 46.0974 25.9607 46.3337 25.9429 46.5646V47.297C26.1182 49.1837 27.5639 50.5576 29.6417 50.5891H47.1242C44.5435 50.5508 42.9357 48.4449 43.5281 45.8564Z" fill="#5D5D63"/>
<path d="M59.3325 30.41H59.6614C59.9634 30.41 60.1667 30.3085 60.2621 30.1086L61.1166 28.8341H63.4048L62.9277 29.6723H65.6715L65.3233 30.9569H62.0585C61.6823 31.5207 61.2193 31.7856 60.6632 31.7543H58.9625L59.3322 30.41M58.9564 32.2507H64.968L64.5847 33.6463H62.167L61.7982 34.9931H64.1507L63.7678 36.3887H61.4153L60.8687 38.379C60.7333 38.7117 60.9114 38.8613 61.3996 38.8276H63.3168L62.9616 40.1244H59.2806C58.5829 40.1244 58.3433 39.7265 58.5623 38.9291L59.2612 36.3893H57.7577L58.1397 34.9937H59.6435L60.0123 33.6469H58.5749L58.957 32.2513L58.9564 32.2507ZM68.5512 28.824L68.4568 29.641C68.4568 29.641 69.5906 28.7927 70.6204 28.7927H74.4257L72.9704 34.0436C72.8495 34.6439 72.3322 34.9422 71.418 34.9422H67.1046L66.0944 38.6292C66.036 38.827 66.1184 38.9281 66.3359 38.9281H67.1849L66.873 40.0726H64.7155C63.8874 40.0726 63.5429 39.8243 63.6795 39.3255L66.5346 28.8237H68.5515L68.5512 28.824ZM71.7739 30.3085H68.3771L67.9708 31.7255C67.9708 31.7255 68.5364 31.3187 69.482 31.304C70.4248 31.2892 71.5007 31.304 71.5007 31.304L71.7739 30.3085ZM70.5429 33.5954C70.7939 33.6294 70.9348 33.5304 70.9514 33.2965L71.1593 32.5496H67.7576L67.4725 33.5951H70.5429V33.5954ZM68.2485 35.292H70.2094L70.1728 36.1379H70.6948C70.9588 36.1379 71.0895 36.0536 71.0895 35.8874L71.2442 35.3405H72.8742L72.6567 36.1382C72.4724 36.8032 71.9846 37.1502 71.1913 37.1843H70.1467L70.1418 38.6298C70.1227 38.8616 70.3325 38.9793 70.7653 38.9793H71.7468L71.43 40.1241H69.075C68.4149 40.1554 68.091 39.8421 68.0981 39.1768L68.2485 35.292ZM44.4873 21.8286C44.2213 23.1276 43.6048 24.1253 42.6485 24.8335C41.7008 25.53 40.4787 25.8792 38.982 25.8792C37.5735 25.8792 36.5412 25.5227 35.8823 24.8071C35.4252 24.2988 35.1982 23.6528 35.1982 22.8722C35.1982 22.5494 35.237 22.2024 35.3142 21.8289L36.9088 14.1661H39.3166L37.7442 21.7419C37.6993 21.9323 37.6775 22.1272 37.679 22.3225C37.6765 22.7107 37.7731 23.0286 37.9688 23.2769C38.2539 23.6458 38.7168 23.8285 39.3616 23.8285C40.1026 23.8285 40.7128 23.6479 41.1868 23.2837C41.6608 22.9222 41.9703 22.409 42.109 21.7416L43.6867 14.1655H46.0825L44.4867 21.8289M54.5999 18.8143H56.4857L55.0084 25.6533H53.1262L54.5999 18.8143ZM55.1935 16.3227H57.0963L56.7407 17.9828H54.8383L55.1935 16.3227ZM58.1554 25.1327C57.662 24.6627 57.4128 24.029 57.4107 23.2242C57.4107 23.0869 57.419 22.9302 57.4374 22.7591C57.4556 22.5856 57.4787 22.417 57.511 22.2603C57.7346 21.1492 58.211 20.2675 58.9447 19.6166C59.6774 18.9636 60.5611 18.6358 61.5958 18.6358C62.4433 18.6358 63.1154 18.8722 63.6075 19.3441C64.0994 19.819 64.3457 20.4597 64.3457 21.2743C64.3457 21.4138 64.335 21.5754 64.3168 21.7489C64.2956 21.92 64.2695 22.0905 64.2384 22.26C64.0197 23.3542 63.5448 24.2264 62.8111 24.8651C62.0772 25.5083 61.196 25.8287 60.1686 25.8287C59.3178 25.8287 58.6478 25.5975 58.1557 25.1324M61.7496 23.7782C62.0821 23.4192 62.3199 22.8744 62.4654 22.1493C62.4872 22.0359 62.5066 21.9178 62.5186 21.7998C62.5306 21.6842 62.5355 21.5757 62.5355 21.477C62.5355 21.0551 62.4279 20.7277 62.2116 20.4962C61.9966 20.2626 61.6909 20.1467 61.2956 20.1467C60.7733 20.1467 60.3476 20.3294 60.0142 20.6961C59.678 21.0625 59.4396 21.6168 59.2898 22.3541C59.2692 22.4676 59.2523 22.5807 59.2366 22.6917C59.2246 22.8051 59.2209 22.9109 59.2233 23.0075C59.2233 23.4269 59.331 23.7497 59.5472 23.9787C59.7626 24.2077 60.0668 24.3209 60.4673 24.3209C60.992 24.3209 61.4174 24.1397 61.7499 23.7785" fill="white"/>
<path d="M76.5824 30.4675L77.0371 28.8723H79.3364L79.2373 29.4579C79.2373 29.4579 80.412 28.8723 81.2582 28.8723H84.1013L83.6495 30.4675H83.2022L81.0577 37.9911H81.5049L81.0795 39.4851H80.6323L80.4462 40.1332H78.2195L78.4053 39.4851H74.0125L74.4407 37.9911H74.8808L77.0275 30.4675H76.5828M79.0635 30.4675L78.4785 32.5035C78.4785 32.5035 79.4797 32.1203 80.3428 32.0121C80.5332 31.3014 80.7824 30.4675 80.7824 30.4675H79.0635ZM78.2075 33.4582L77.6203 35.5912C77.6203 35.5912 78.7298 35.0464 79.4914 35.0007C79.7113 34.1763 79.9316 33.4586 79.9316 33.4586H78.2078L78.2075 33.4582ZM78.6375 37.9911L79.0774 36.4438H77.3613L76.9186 37.9911H78.6375ZM84.1982 28.7736H86.36L86.452 29.5686C86.4375 29.7709 86.5584 29.8675 86.8146 29.8675H87.1967L86.8103 31.2143H85.2216C84.6153 31.2456 84.3031 31.0145 84.2742 30.5156L84.1985 28.7736H84.1982ZM83.5649 31.6632H90.5664L90.1554 33.1094H87.9263L87.5439 34.4537H89.7712L89.3575 35.8971H86.8774L86.3163 36.7433H87.5307L87.8109 38.4372C87.8442 38.6058 87.9943 38.6877 88.2508 38.6877H88.6276L88.2314 40.0826H86.8968C86.205 40.1167 85.8479 39.8852 85.8183 39.3864L85.4966 37.839L84.392 39.4851C84.1309 39.9502 83.7291 40.1669 83.1878 40.1332H81.1496L81.5458 38.7376H82.1819C82.4431 38.7376 82.6605 38.6224 82.8562 38.3881L84.5855 35.8965H82.3563L82.7694 34.4531H85.1871L85.5716 33.1087H83.1518L83.5649 31.6626M46.7056 18.8111H48.4066L48.2119 19.7989L48.4562 19.5169C49.0077 18.9289 49.6773 18.6373 50.4678 18.6373C51.1836 18.6373 51.6995 18.8445 52.0237 19.2615C52.3426 19.6785 52.43 20.2545 52.2787 20.994L51.3414 25.6544H49.5933L50.4392 21.4303C50.5263 20.994 50.5023 20.6687 50.3679 20.459C50.2353 20.2493 49.9812 20.146 49.6149 20.146C49.1652 20.146 48.7868 20.2855 48.4783 20.563C48.1689 20.8426 47.9646 21.2307 47.864 21.7243L47.0843 25.6547H45.3325L46.705 18.8111M66.2097 18.8111H67.9122L67.7188 19.7989L67.9599 19.5169C68.5117 18.9289 69.1838 18.6373 69.9719 18.6373C70.6877 18.6373 71.2044 18.8445 71.5262 19.2615C71.8433 19.6785 71.9347 20.2545 71.7803 20.994L70.8467 25.6544H69.0965L69.943 21.4303C70.03 20.994 70.0054 20.6687 69.8725 20.459C69.7347 20.2493 69.4856 20.146 69.1208 20.146C68.6708 20.146 68.294 20.2855 67.9821 20.563C67.6726 20.8426 67.4671 21.2307 67.3706 21.7243L66.5871 25.6547H64.8378L66.2097 18.8111ZM74.6237 14.5698H79.5655C80.5154 14.5698 81.2505 14.7844 81.7556 15.2057C82.2585 15.6328 82.5101 16.2444 82.5101 17.0421V17.0663C82.5101 17.2181 82.5003 17.3892 82.4855 17.5747C82.4603 17.7629 82.4283 17.9502 82.3889 18.1363C82.1712 19.1916 81.6661 20.0402 80.8854 20.6834C80.1017 21.3245 79.1736 21.6473 78.105 21.6473H75.4548L74.6354 25.6547H72.341L74.6237 14.5698ZM75.8587 19.7198H78.0564C78.6292 19.7198 79.0838 19.5871 79.4157 19.3247C79.7445 19.0595 79.9623 18.6548 80.0826 18.1054C80.102 18.0039 80.114 17.9125 80.1287 17.8282C80.1361 17.7488 80.1456 17.6691 80.1456 17.5921C80.1456 17.1991 80.0057 16.9149 79.7248 16.7365C79.4446 16.5553 79.0045 16.4691 78.3954 16.4691H76.5289L75.859 19.7202M92.7805 26.9783C92.0548 28.5155 91.3637 29.4116 90.9576 29.8286C90.5513 30.2409 89.746 31.1999 87.8069 31.1276L87.9743 29.9543C89.6061 29.453 90.4883 27.1947 90.9915 26.1949L90.3917 18.8307L91.6537 18.8139H92.7125L92.8266 23.4335L94.8112 18.8139H96.8207L92.7805 26.9783ZM87.1619 19.3703L86.3637 19.9173C85.5298 19.2667 84.7682 18.8642 83.2985 19.5439C81.2967 20.4691 79.6233 27.5663 85.1361 25.2286L85.4501 25.5998L87.619 25.6553L89.0432 19.2066L87.1619 19.3703ZM85.9284 22.8958C85.5802 23.9201 84.802 24.597 84.1927 24.4042C83.5833 24.2162 83.3656 23.2281 83.719 22.2017C84.0672 21.1749 84.8506 20.5004 85.4548 20.6933C86.0641 20.8812 86.2837 21.8693 85.9284 22.8958Z" fill="white"/>
</svg>
