<svg width="130" height="53" viewBox="0 0 130 53" fill="none" xmlns="http://www.w3.org/2000/svg">
<path fill-rule="evenodd" clip-rule="evenodd" d="M38.6384 42.1038H29.6552L22.9189 15.5477C22.5992 14.3261 21.9203 13.2462 20.9217 12.7372C18.4295 11.458 15.6834 10.4401 12.6875 9.92664V8.90423H27.1587C29.1559 8.90423 30.6538 10.4401 30.9035 12.2237L34.3987 31.3795L43.3774 8.90423H52.111L38.6384 42.1038ZM57.1038 42.1038H48.6199L55.6059 8.90423H64.0897L57.1038 42.1038ZM75.0661 18.1016C75.3158 16.3135 76.8137 15.2911 78.5613 15.2911C81.3075 15.0344 84.299 15.5478 86.7955 16.8225L88.2934 9.6745C85.7969 8.65209 83.0507 8.13867 80.5585 8.13867C72.3243 8.13867 66.3326 12.7373 66.3326 19.1196C66.3326 23.975 70.5767 26.5243 73.5726 28.0602C76.8137 29.5916 78.062 30.614 77.8123 32.1454C77.8123 34.4425 75.3158 35.4649 72.8236 35.4649C69.8278 35.4649 66.8319 34.6992 64.0901 33.4201L62.5922 40.5725C65.588 41.8472 68.8292 42.3606 71.825 42.3606C81.0578 42.6129 86.7955 38.0187 86.7955 31.123C86.7955 22.4391 75.0661 21.9301 75.0661 18.1016ZM116.487 42.1038L109.75 8.90423H102.515C101.017 8.90423 99.5189 9.92664 99.0196 11.458L86.5457 42.1038H95.2792L97.0224 37.2529H107.753L108.752 42.1038H116.487ZM103.763 17.8451L106.255 30.3574H99.2692L103.763 17.8451Z" fill="#909094"/>
</svg>
