<svg width="130" height="53" viewBox="0 0 130 53" fill="none" xmlns="http://www.w3.org/2000/svg">
<path fill-rule="evenodd" clip-rule="evenodd" d="M126.471 40.3357H125.379V13.6948H126.471V40.3357Z" fill="#909094"/>
<path fill-rule="evenodd" clip-rule="evenodd" d="M113.257 40.2541H112.165V13.6133H113.257V40.2541Z" fill="#909094"/>
<path fill-rule="evenodd" clip-rule="evenodd" d="M11.3343 25.531L12.4342 17.843L13.5495 25.531H18.9106L21.5181 13.665H17.3185L16.1647 21.1675L15.0187 13.665H9.90368L8.74993 20.9672L7.61925 13.665H3.24268L5.88093 25.531H11.3343Z" fill="#909094"/>
<path fill-rule="evenodd" clip-rule="evenodd" d="M23.6182 25.531H34.3019V22.4439H28.9177V21.0414H33.9943V17.9914H28.9177V16.715H34.125V13.665H23.6182V25.531Z" fill="#909094"/>
<path fill-rule="evenodd" clip-rule="evenodd" d="M36.594 21.7165C36.5786 21.8649 36.5786 22.0134 36.5786 22.1469C36.5786 24.4103 38.7015 25.7312 42.7089 25.7312C46.7163 25.7312 48.8084 24.3732 48.8084 21.8649C48.8084 19.7055 47.547 19.0599 44.4088 18.0432C42.732 17.4941 41.7551 17.5237 41.7551 16.7C41.7551 16.2548 42.0474 15.9283 42.755 15.9283C43.5857 15.9283 43.9857 16.4551 43.9472 17.2343H48.4853V16.7371C48.4853 14.6445 46.524 13.3755 42.8935 13.3755C38.9092 13.3755 36.794 14.8671 36.794 17.1972C36.794 18.8669 37.8631 19.8316 40.0706 20.4401C41.6859 20.8854 42.6089 21.2564 43.3088 21.5533C43.678 21.7091 43.8011 22.0653 43.7473 22.3992C43.678 22.8593 43.3858 23.1413 42.6627 23.1413C41.7705 23.1413 41.5167 22.6219 41.5167 21.813V21.7165H36.6017H36.594Z" fill="#909094"/>
<path fill-rule="evenodd" clip-rule="evenodd" d="M61.8305 13.665H50.1392V16.8337H53.3927V25.531H58.6V16.8337H61.8305V13.665Z" fill="#909094"/>
<path fill-rule="evenodd" clip-rule="evenodd" d="M64.0684 25.531H74.7521V22.4439H69.3679V21.0414H74.3983V17.9914H69.3679V16.715H74.5752V13.665H64.0684V25.531Z" fill="#909094"/>
<path fill-rule="evenodd" clip-rule="evenodd" d="M78.0057 25.5309H83.1207V21.3084C83.2899 21.2936 83.4591 21.2936 83.5899 21.2936C84.8206 21.2936 84.9975 21.724 85.1975 23.0152L85.3282 23.8909C85.4051 24.4178 85.5513 24.9669 85.7282 25.5383H90.9201C90.697 24.6626 90.5201 23.9577 90.4509 23.4234L90.2817 22.1544C90.0509 20.4402 89.3741 19.7946 87.9972 19.5274C89.3971 19.1935 90.4509 18.1768 90.4509 16.752C90.4509 14.3773 88.8972 13.6724 85.159 13.6724H77.998V25.5383L78.0057 25.5309ZM83.1207 18.392V16.3216C83.3515 16.3068 83.5361 16.3068 83.7053 16.3068C84.859 16.3068 85.3667 16.5739 85.3667 17.316C85.3667 18.0581 84.7206 18.4069 83.4976 18.4069C83.3822 18.4069 83.2515 18.4069 83.1207 18.392Z" fill="#909094"/>
<path fill-rule="evenodd" clip-rule="evenodd" d="M97.512 18.7632L100.258 25.531H106.204V13.665H102.189V19.7056L99.9195 13.665H93.4893V25.531H97.512V18.7632Z" fill="#909094"/>
<path fill-rule="evenodd" clip-rule="evenodd" d="M56.8152 32.9149L59.5612 39.6827H65.5068V27.8242H61.4841V33.8648L59.215 27.8242H52.7925V39.6827H56.8152V32.9149Z" fill="#909094"/>
<path fill-rule="evenodd" clip-rule="evenodd" d="M97.6352 32.9149L100.381 39.6827H106.327V27.8242H102.312V33.8648L100.043 27.8242H93.6201V39.6827H97.6352V32.9149Z" fill="#909094"/>
<path fill-rule="evenodd" clip-rule="evenodd" d="M36.8788 27.8242V34.9705C36.8788 36.3359 36.9711 37.412 38.0633 38.436C39.194 39.4898 40.8323 39.8905 43.1706 39.8905C47.4702 39.8905 49.4855 38.3396 49.4855 34.9705V27.8242H44.3782V35.156C44.3782 36.1282 43.9244 36.655 43.1706 36.655C42.3783 36.655 41.963 36.1578 41.963 35.156V27.8242H36.8711H36.8788Z" fill="#909094"/>
<path fill-rule="evenodd" clip-rule="evenodd" d="M74.0911 27.8242H68.853V39.6827H74.0911V27.8242Z" fill="#909094"/>
<path fill-rule="evenodd" clip-rule="evenodd" d="M83.6826 39.8683C88.3438 39.8683 90.8359 37.694 90.8359 33.6645C90.8359 29.635 88.3207 27.4458 83.8519 27.4458C79.383 27.4458 76.814 29.7017 76.814 33.6793C76.814 37.6569 79.3291 39.8609 83.6826 39.8609V39.8683ZM83.8365 30.2064C85.0441 30.2064 85.3287 31.2379 85.3287 33.479C85.3287 35.9872 85.021 37.13 83.8134 37.13C82.6058 37.13 82.3212 36.0095 82.3212 33.7238C82.3212 31.3269 82.5904 30.2064 83.8365 30.2064Z" fill="#909094"/>
</svg>
